error_17_pit_syu.ufo
<glyph name="ety001_cid02087_H" format="1">
  <advance width="1000"/>
  <outline>
    <contour>
      <point x="491" y="618" type="curve"/>
      <point x="404" y="712" type="line"/>
      <point x="352" y="683"/>
      <point x="270" y="651"/>
      <point x="197" y="630" type="curve"/>
      <point x="210" y="605"/>
      <point x="227" y="564"/>
      <point x="232" y="539" type="curve"/>
      <point x="314" y="557"/>
      <point x="412" y="584"/>
    </contour>
    <contour>
      <point x="307" y="629" type="line"/>
      <point x="196" y="629" type="line"/>
      <point x="196" y="174" type="line"/>
      <point x="307" y="174" type="line"/>
    </contour>
  </outline>
</glyph>
<glyph name="ety002_cid02552_H" format="1">
  <advance width="1000"/>
  <outline>
    <contour>
      <point x="522" y="676" type="line"/>
      <point x="380" y="728" type="line"/>
      <point x="380" y="232" type="line"/>
      <point x="522" y="232" type="line"/>
    </contour>
    <contour>
      <point x="919" y="727" type="curve"/>
      <point x="793" y="830" type="line"/>
      <point x="694" y="789"/>
      <point x="530" y="751"/>
      <point x="379" y="728" type="curve"/>
      <point x="396" y="700"/>
      <point x="416" y="647"/>
      <point x="422" y="615" type="curve"/>
      <point x="585" y="637"/>
      <point x="773" y="673"/>
    </contour>
  </outline>
</glyph>
<glyph name="ety003_cid02776_EL" format="1">
  <advance width="1000"/>
  <outline>
    <contour>
      <point x="492" y="638" type="curve"/>
      <point x="464" y="660" type="line"/>
      <point x="425" y="637"/>
      <point x="351" y="614"/>
      <point x="288" y="598" type="curve"/>
      <point x="292" y="591"/>
      <point x="298" y="581"/>
      <point x="300" y="574" type="curve"/>
      <point x="365" y="589"/>
      <point x="441" y="613"/>
    </contour>
    <contour>
      <point x="316" y="586" type="line"/>
      <point x="287" y="598" type="line"/>
      <point x="287" y="286" type="line"/>
      <point x="316" y="286" type="line"/>
    </contour>
  </outline>
</glyph>
<glyph name="ety004_cid02776_H" format="1">
  <advance width="1000"/>
  <outline>
    <contour>
      <point x="511" y="573" type="curve"/>
      <point x="453" y="673" type="line"/>
      <point x="405" y="656"/>
      <point x="335" y="640"/>
      <point x="276" y="629" type="curve"/>
      <point x="287" y="603"/>
      <point x="299" y="565"/>
      <point x="303" y="540" type="curve"/>
      <point x="366" y="545"/>
      <point x="444" y="556"/>
    </contour>
    <contour>
      <point x="392" y="599" type="line"/>
      <point x="276" y="630" type="line"/>
      <point x="276" y="275" type="line"/>
      <point x="392" y="275" type="line"/>
    </contour>
  </outline>
</glyph>
<glyph name="ety006_cid03193_H" format="1">
  <advance width="1000"/>
  <outline>
    <contour>
      <point x="936" y="742" type="curve"/>
      <point x="820" y="851" type="line"/>
      <point x="733" y="820"/>
      <point x="596" y="788"/>
      <point x="472" y="769" type="curve"/>
      <point x="488" y="740"/>
      <point x="508" y="688"/>
      <point x="514" y="657" type="curve"/>
      <point x="649" y="674"/>
      <point x="808" y="703"/>
    </contour>
    <contour>
      <point x="613" y="724" type="line"/>
      <point x="472" y="768" type="line"/>
      <point x="472" y="12" type="line"/>
      <point x="613" y="12" type="line"/>
    </contour>
  </outline>
</glyph>
<glyph name="ety007_cid03194_H" format="1">
  <advance width="1000"/>
  <outline>
    <contour>
      <point x="935" y="742" type="curve"/>
      <point x="819" y="851" type="line"/>
      <point x="732" y="820"/>
      <point x="597" y="788"/>
      <point x="473" y="769" type="curve"/>
      <point x="489" y="740"/>
      <point x="508" y="688"/>
      <point x="515" y="657" type="curve"/>
      <point x="649" y="674"/>
      <point x="807" y="703"/>
    </contour>
    <contour>
      <point x="614" y="724" type="line"/>
      <point x="473" y="768" type="line"/>
      <point x="473" y="12" type="line"/>
      <point x="614" y="12" type="line"/>
    </contour>
  </outline>
</glyph>
<glyph name="ety008_cid03656_EL" format="1">
  <advance width="1000"/>
  <outline>
    <contour>
      <point x="647" y="445" type="curve"/>
      <point x="619" y="468" type="line"/>
      <point x="580" y="441"/>
      <point x="511" y="407"/>
      <point x="452" y="381" type="curve"/>
      <point x="456" y="375"/>
      <point x="462" y="365"/>
      <point x="464" y="359" type="curve"/>
      <point x="525" y="383"/>
      <point x="595" y="416"/>
    </contour>
    <contour>
      <point x="481" y="381" type="line"/>
      <point x="451" y="381" type="line"/>
      <point x="451" y="-68" type="line"/>
      <point x="481" y="-68" type="line"/>
    </contour>
  </outline>
</glyph>
<glyph name="ety009_cid03656_H" format="1">
  <advance width="1000"/>
  <outline>
    <contour>
      <point x="694" y="425" type="curve"/>
      <point x="600" y="519" type="line"/>
      <point x="559" y="486"/>
      <point x="495" y="448"/>
      <point x="437" y="422" type="curve"/>
      <point x="452" y="397"/>
      <point x="470" y="355"/>
      <point x="476" y="330" type="curve"/>
      <point x="544" y="354"/>
      <point x="626" y="387"/>
    </contour>
    <contour>
      <point x="563" y="421" type="line"/>
      <point x="437" y="421" type="line"/>
      <point x="437" y="-97" type="line"/>
      <point x="563" y="-97" type="line"/>
    </contour>
  </outline>
</glyph>
<glyph name="ety010_cid03959_H" format="1">
  <advance width="1000"/>
  <outline>
    <contour>
      <point x="614" y="738" type="curve"/>
      <point x="517" y="832" type="line"/>
      <point x="481" y="803"/>
      <point x="423" y="772"/>
      <point x="369" y="751" type="curve"/>
      <point x="383" y="726"/>
      <point x="401" y="683"/>
      <point x="407" y="657" type="curve"/>
      <point x="472" y="675"/>
      <point x="549" y="702"/>
    </contour>
    <contour>
      <point x="496" y="711" type="line"/>
      <point x="368" y="751" type="line"/>
      <point x="368" y="372" type="line"/>
      <point x="496" y="372" type="line"/>
    </contour>
  </outline>
</glyph>
<glyph name="ety011_cid04040_H" format="1">
  <advance width="1000"/>
  <outline>
    <contour>
      <point x="330" y="284" type="curve"/>
      <point x="279" y="377" type="line"/>
      <point x="233" y="355"/>
      <point x="160" y="324"/>
      <point x="109" y="313" type="curve"/>
      <point x="153" y="224" type="line"/>
      <point x="204" y="235"/>
      <point x="276" y="257"/>
    </contour>
    <contour>
      <point x="225" y="276" type="line"/>
      <point x="109" y="310" type="line"/>
      <point x="109" y="-88" type="line"/>
      <point x="225" y="-88" type="line"/>
    </contour>
  </outline>
</glyph>
<glyph name="ety013_cid04283_H" format="1">
  <advance width="1000"/>
  <outline>
    <contour>
      <point x="248" y="738" type="curve"/>
      <point x="162" y="832" type="line"/>
      <point x="135" y="804"/>
      <point x="91" y="773"/>
      <point x="50" y="752" type="curve"/>
      <point x="63" y="726"/>
      <point x="78" y="684"/>
      <point x="84" y="658" type="curve"/>
      <point x="135" y="676"/>
      <point x="196" y="703"/>
    </contour>
    <contour>
      <point x="159" y="712" type="line"/>
      <point x="49" y="751" type="line"/>
      <point x="49" y="372" type="line"/>
      <point x="159" y="372" type="line"/>
    </contour>
  </outline>
</glyph>
<glyph name="ety014_cid04535_H" format="1">
  <advance width="1000"/>
  <outline>
    <contour>
      <point x="616" y="364" type="curve"/>
      <point x="554" y="483" type="line"/>
      <point x="507" y="460"/>
      <point x="443" y="434"/>
      <point x="390" y="416" type="curve"/>
      <point x="402" y="387"/>
      <point x="417" y="345"/>
      <point x="422" y="318" type="curve"/>
      <point x="478" y="329"/>
      <point x="547" y="345"/>
    </contour>
    <contour>
      <point x="523" y="376" type="line"/>
      <point x="389" y="416" type="line"/>
      <point x="389" y="-93" type="line"/>
      <point x="523" y="-93" type="line"/>
    </contour>
  </outline>
</glyph>
<glyph name="ety015_cid04572_EL" format="1">
  <advance width="1000"/>
  <outline>
    <contour>
      <point x="603" y="762" type="curve"/>
      <point x="575" y="783" type="line"/>
      <point x="538" y="761"/>
      <point x="468" y="735"/>
      <point x="408" y="719" type="curve"/>
      <point x="412" y="711"/>
      <point x="417" y="702"/>
      <point x="420" y="695" type="curve"/>
      <point x="481" y="712"/>
      <point x="553" y="736"/>
    </contour>
    <contour>
      <point x="436" y="708" type="line"/>
      <point x="407" y="718" type="line"/>
      <point x="407" y="398" type="line"/>
      <point x="436" y="398" type="line"/>
    </contour>
  </outline>
</glyph>
<glyph name="ety016_cid04572_H" format="1">
  <advance width="1000"/>
  <outline>
    <contour>
      <point x="622" y="738" type="curve"/>
      <point x="525" y="832" type="line"/>
      <point x="488" y="803"/>
      <point x="430" y="772"/>
      <point x="376" y="751" type="curve"/>
      <point x="391" y="726"/>
      <point x="409" y="683"/>
      <point x="415" y="657" type="curve"/>
      <point x="480" y="675"/>
      <point x="557" y="702"/>
    </contour>
    <contour>
      <point x="501" y="712" type="line"/>
      <point x="375" y="751" type="line"/>
      <point x="375" y="372" type="line"/>
      <point x="501" y="372" type="line"/>
    </contour>
  </outline>
</glyph>
<glyph name="ety017_cid04825_H" format="1">
  <advance width="1000"/>
  <outline>
    <contour>
      <point x="245" y="738" type="curve"/>
      <point x="160" y="832" type="line"/>
      <point x="133" y="804"/>
      <point x="90" y="773"/>
      <point x="49" y="752" type="curve"/>
      <point x="62" y="726"/>
      <point x="77" y="684"/>
      <point x="83" y="658" type="curve"/>
      <point x="133" y="676"/>
      <point x="194" y="703"/>
    </contour>
    <contour>
      <point x="156" y="712" type="line"/>
      <point x="48" y="751" type="line"/>
      <point x="48" y="372" type="line"/>
      <point x="156" y="372" type="line"/>
    </contour>
  </outline>
</glyph>
<glyph name="ety018_cid04865_EL" format="1">
  <advance width="1000"/>
  <outline>
    <contour>
      <point x="472" y="710" type="line"/>
      <point x="442" y="721" type="line"/>
      <point x="442" y="-23" type="line"/>
      <point x="472" y="-23" type="line"/>
    </contour>
    <contour>
      <point x="841" y="797" type="curve"/>
      <point x="811" y="818" type="line"/>
      <point x="730" y="783"/>
      <point x="575" y="747"/>
      <point x="443" y="721" type="curve"/>
      <point x="448" y="715"/>
      <point x="453" y="705"/>
      <point x="455" y="698" type="curve"/>
      <point x="589" y="722"/>
      <point x="744" y="758"/>
    </contour>
  </outline>
</glyph>
<glyph name="ety019_cid04865_H" format="1">
  <advance width="1000"/>
  <outline>
    <contour>
      <point x="571" y="722" type="line"/>
      <point x="425" y="767" type="line"/>
      <point x="425" y="3" type="line"/>
      <point x="571" y="3" type="line"/>
    </contour>
    <contour>
      <point x="937" y="733" type="curve"/>
      <point x="820" y="843" type="line"/>
      <point x="721" y="813"/>
      <point x="565" y="785"/>
      <point x="425" y="768" type="curve"/>
      <point x="440" y="739"/>
      <point x="460" y="687"/>
      <point x="465" y="655" type="curve"/>
      <point x="616" y="669"/>
      <point x="794" y="695"/>
    </contour>
  </outline>
</glyph>
<glyph name="ety020_cid05058_H" format="1">
  <advance width="1000"/>
  <outline>
    <contour>
      <point x="454" y="583" type="line"/>
      <point x="343" y="622" type="line"/>
      <point x="343" y="341" type="line"/>
      <point x="454" y="341" type="line"/>
    </contour>
    <contour>
      <point x="615" y="638" type="curve"/>
      <point x="546" y="719" type="line"/>
      <point x="494" y="687"/>
      <point x="405" y="644"/>
      <point x="344" y="623" type="curve"/>
      <point x="395" y="555" type="line"/>
      <point x="459" y="573"/>
      <point x="544" y="604"/>
    </contour>
  </outline>
</glyph>
<glyph name="ety021_cid05066_H" format="1">
  <advance width="1000"/>
  <outline>
    <contour>
      <point x="544" y="255" type="line"/>
      <point x="443" y="284" type="line"/>
      <point x="443" y="-18" type="line"/>
      <point x="544" y="-18" type="line"/>
    </contour>
    <contour>
      <point x="623" y="257" type="curve"/>
      <point x="556" y="326" type="line"/>
      <point x="527" y="311"/>
      <point x="481" y="295"/>
      <point x="443" y="283" type="curve"/>
      <point x="453" y="265"/>
      <point x="465" y="236"/>
      <point x="470" y="219" type="curve"/>
      <point x="514" y="226"/>
      <point x="572" y="240"/>
    </contour>
  </outline>
</glyph>
<glyph name="ety022_cid05203_H" format="1">
  <advance width="1000"/>
  <outline>
    <contour>
      <point x="299" y="578" type="curve"/>
      <point x="226" y="655" type="line"/>
      <point x="189" y="636"/>
      <point x="131" y="617"/>
      <point x="77" y="606" type="curve"/>
      <point x="87" y="585"/>
      <point x="99" y="549"/>
      <point x="103" y="527" type="curve"/>
      <point x="164" y="537"/>
      <point x="238" y="554"/>
    </contour>
    <contour>
      <point x="192" y="606" type="line"/>
      <point x="73" y="606" type="line"/>
      <point x="73" y="341" type="line"/>
      <point x="192" y="341" type="line"/>
    </contour>
  </outline>
</glyph>
<glyph name="ety024_cid05359_EL" format="1">
  <advance width="1000"/>
  <outline>
    <contour>
      <point x="501" y="549" type="line"/>
      <point x="473" y="561" type="line"/>
      <point x="473" y="166" type="line"/>
      <point x="501" y="166" type="line"/>
    </contour>
    <contour>
      <point x="831" y="578" type="curve"/>
      <point x="811" y="604" type="line"/>
      <point x="734" y="584"/>
      <point x="588" y="569"/>
      <point x="473" y="560" type="curve"/>
      <point x="476" y="552"/>
      <point x="481" y="541"/>
      <point x="482" y="533" type="curve"/>
      <point x="599" y="539"/>
      <point x="746" y="556"/>
    </contour>
  </outline>
</glyph>
<glyph name="ety025_cid05359_H" format="1">
  <advance width="1000"/>
  <outline>
    <contour>
      <point x="569" y="562" type="line"/>
      <point x="444" y="589" type="line"/>
      <point x="444" y="178" type="line"/>
      <point x="569" y="178" type="line"/>
    </contour>
    <contour>
      <point x="903" y="514" type="curve"/>
      <point x="856" y="633" type="line"/>
      <point x="742" y="611"/>
      <point x="584" y="596"/>
      <point x="443" y="589" type="curve"/>
      <point x="456" y="558"/>
      <point x="470" y="512"/>
      <point x="473" y="480" type="curve"/>
      <point x="611" y="481"/>
      <point x="776" y="492"/>
    </contour>
  </outline>
</glyph>
<glyph name="ety026_cid05929_H" format="1">
  <advance width="1000"/>
  <outline>
    <contour>
      <point x="591" y="722" type="line"/>
      <point x="452" y="767" type="line"/>
      <point x="452" y="3" type="line"/>
      <point x="591" y="3" type="line"/>
    </contour>
    <contour>
      <point x="939" y="733" type="curve"/>
      <point x="828" y="843" type="line"/>
      <point x="734" y="813"/>
      <point x="586" y="785"/>
      <point x="452" y="768" type="curve"/>
      <point x="466" y="739"/>
      <point x="485" y="687"/>
      <point x="490" y="655" type="curve"/>
      <point x="634" y="669"/>
      <point x="803" y="695"/>
    </contour>
  </outline>
</glyph>
<glyph name="ety027_cid06061_H" format="1">
  <advance width="1000"/>
  <outline>
    <contour>
      <point x="681" y="258" type="curve"/>
      <point x="617" y="353" type="line"/>
      <point x="568" y="330"/>
      <point x="490" y="297"/>
      <point x="437" y="284" type="curve"/>
      <point x="492" y="195" type="line"/>
      <point x="546" y="207"/>
      <point x="623" y="230"/>
    </contour>
    <contour>
      <point x="555" y="257" type="line"/>
      <point x="439" y="285" type="line"/>
      <point x="439" y="-98" type="line"/>
      <point x="555" y="-98" type="line"/>
    </contour>
  </outline>
</glyph>
<glyph name="ety030_cid06403_EL" format="1">
  <advance width="1000"/>
  <outline>
    <contour>
      <point x="463" y="618" type="curve"/>
      <point x="439" y="641" type="line"/>
      <point x="385" y="621"/>
      <point x="286" y="600"/>
      <point x="205" y="586" type="curve"/>
      <point x="209" y="578"/>
      <point x="214" y="569"/>
      <point x="216" y="562" type="curve"/>
      <point x="298" y="573"/>
      <point x="398" y="594"/>
    </contour>
    <contour>
      <point x="232" y="576" type="line"/>
      <point x="203" y="586" type="line"/>
      <point x="203" y="330" type="line"/>
      <point x="232" y="330" type="line"/>
    </contour>
  </outline>
</glyph>
<glyph name="ety032_cid06546_H" format="1">
  <advance width="1000"/>
  <outline>
    <contour>
      <point x="685" y="758" type="curve"/>
      <point x="589" y="856" type="line"/>
      <point x="553" y="824"/>
      <point x="498" y="783"/>
      <point x="449" y="755" type="curve"/>
      <point x="464" y="730"/>
      <point x="482" y="688"/>
      <point x="489" y="663" type="curve"/>
      <point x="548" y="688"/>
      <point x="621" y="722"/>
    </contour>
    <contour>
      <point x="584" y="755" type="line"/>
      <point x="448" y="755" type="line"/>
      <point x="448" y="332" type="line"/>
      <point x="584" y="332" type="line"/>
    </contour>
  </outline>
</glyph>
<glyph name="ety034_cid06772_H" format="1">
  <advance width="1000"/>
  <outline>
    <contour>
      <point x="655" y="736" type="curve"/>
      <point x="562" y="832" type="line"/>
      <point x="528" y="803"/>
      <point x="475" y="772"/>
      <point x="426" y="752" type="curve"/>
      <point x="440" y="726"/>
      <point x="458" y="683"/>
      <point x="464" y="658" type="curve"/>
      <point x="523" y="675"/>
      <point x="594" y="701"/>
    </contour>
    <contour>
      <point x="537" y="716" type="line"/>
      <point x="425" y="751" type="line"/>
      <point x="425" y="372" type="line"/>
      <point x="537" y="372" type="line"/>
    </contour>
  </outline>
</glyph>
<glyph name="ety035_cid06880_H" format="1">
  <advance width="1000"/>
  <outline>
    <contour>
      <point x="653" y="658" type="curve"/>
      <point x="548" y="696" type="line"/>
      <point x="522" y="648"/>
      <point x="474" y="583"/>
      <point x="436" y="543" type="curve"/>
      <point x="529" y="507" type="line"/>
      <point x="567" y="545"/>
      <point x="613" y="601"/>
    </contour>
    <contour>
      <point x="563" y="543" type="line"/>
      <point x="435" y="543" type="line"/>
      <point x="435" y="390" type="line"/>
      <point x="563" y="390" type="line"/>
    </contour>
  </outline>
</glyph>
<glyph name="ety036_cid06936_H" format="1">
  <advance width="1000"/>
  <outline>
    <contour>
      <point x="478" y="762" type="curve"/>
      <point x="419" y="857" type="line"/>
      <point x="343" y="835"/>
      <point x="228" y="816"/>
      <point x="129" y="805" type="curve"/>
      <point x="141" y="780"/>
      <point x="154" y="742"/>
      <point x="157" y="717" type="curve"/>
      <point x="260" y="723"/>
      <point x="384" y="738"/>
    </contour>
    <contour>
      <point x="266" y="771" type="line"/>
      <point x="129" y="806" type="line"/>
      <point x="129" y="507" type="line"/>
      <point x="266" y="507" type="line"/>
    </contour>
  </outline>
</glyph>
<glyph name="ety037_cid07222_H" format="1">
  <advance width="1000"/>
  <outline>
    <contour>
      <point x="515" y="574" type="line"/>
      <point x="407" y="605" type="line"/>
      <point x="407" y="315" type="line"/>
      <point x="515" y="315" type="line"/>
    </contour>
    <contour>
      <point x="603" y="552" type="curve"/>
      <point x="556" y="638" type="line"/>
      <point x="517" y="628"/>
      <point x="450" y="609"/>
      <point x="408" y="606" type="curve"/>
      <point x="445" y="530" type="line"/>
      <point x="489" y="531"/>
      <point x="552" y="538"/>
    </contour>
  </outline>
</glyph>
<glyph name="ety039_cid07695_H" format="1">
  <advance width="1000"/>
  <outline>
    <contour>
      <point x="641" y="353" type="curve"/>
      <point x="565" y="458" type="line"/>
      <point x="527" y="444"/>
      <point x="473" y="431"/>
      <point x="426" y="422" type="curve"/>
      <point x="438" y="395"/>
      <point x="452" y="352"/>
      <point x="456" y="326" type="curve"/>
      <point x="509" y="330"/>
      <point x="577" y="339"/>
    </contour>
    <contour>
      <point x="553" y="381" type="line"/>
      <point x="426" y="421" type="line"/>
      <point x="426" y="-96" type="line"/>
      <point x="553" y="-96" type="line"/>
    </contour>
  </outline>
</glyph>
<glyph name="ety040_cid07731_H" format="1">
  <advance width="1000"/>
  <outline>
    <contour>
      <point x="715" y="538" type="line"/>
      <point x="617" y="538" type="line"/>
      <point x="617" y="335" type="line"/>
      <point x="715" y="335" type="line"/>
    </contour>
    <contour>
      <point x="824" y="628" type="curve"/>
      <point x="721" y="660" type="line"/>
      <point x="697" y="624"/>
      <point x="655" y="573"/>
      <point x="618" y="538" type="curve"/>
      <point x="682" y="510" type="line"/>
      <point x="722" y="538"/>
      <point x="776" y="584"/>
    </contour>
  </outline>
</glyph>
<glyph name="ety041_cid07832_EL" format="1">
  <advance width="1000"/>
  <outline>
    <contour>
      <point x="419" y="795" type="curve"/>
      <point x="390" y="817" type="line"/>
      <point x="333" y="795"/>
      <point x="231" y="768"/>
      <point x="142" y="751" type="curve"/>
      <point x="146" y="743"/>
      <point x="151" y="733"/>
      <point x="153" y="726" type="curve"/>
      <point x="243" y="744"/>
      <point x="347" y="769"/>
    </contour>
    <contour>
      <point x="171" y="738" type="line"/>
      <point x="142" y="750" type="line"/>
      <point x="142" y="533" type="line"/>
      <point x="171" y="533" type="line"/>
    </contour>
  </outline>
</glyph>
<glyph name="ety042_cid07942_H" format="1">
  <advance width="1000"/>
  <outline>
    <contour>
      <point x="974" y="744" type="curve"/>
      <point x="850" y="853" type="line"/>
      <point x="761" y="822"/>
      <point x="621" y="791"/>
      <point x="493" y="771" type="curve"/>
      <point x="510" y="743"/>
      <point x="531" y="691"/>
      <point x="538" y="660" type="curve"/>
      <point x="677" y="677"/>
      <point x="841" y="705"/>
    </contour>
    <contour>
      <point x="642" y="727" type="line"/>
      <point x="494" y="771" type="line"/>
      <point x="494" y="15" type="line"/>
      <point x="642" y="15" type="line"/>
    </contour>
  </outline>
</glyph>
<glyph name="ety043_cid08352_H" format="1">
  <advance width="1000"/>
  <outline>
    <contour>
      <point x="553" y="543" type="line"/>
      <point x="442" y="582" type="line"/>
      <point x="442" y="301" type="line"/>
      <point x="553" y="301" type="line"/>
    </contour>
    <contour>
      <point x="669" y="578" type="curve"/>
      <point x="599" y="659" type="line"/>
      <point x="559" y="635"/>
      <point x="490" y="601"/>
      <point x="442" y="585" type="curve"/>
      <point x="494" y="517" type="line"/>
      <point x="544" y="530"/>
      <point x="610" y="552"/>
    </contour>
  </outline>
</glyph>
<glyph name="ety047_cid08941_H" format="1">
  <advance width="1000"/>
  <outline>
    <contour>
      <point x="674" y="350" type="curve"/>
      <point x="593" y="458" type="line"/>
      <point x="553" y="444"/>
      <point x="495" y="430"/>
      <point x="445" y="421" type="curve"/>
      <point x="457" y="393"/>
      <point x="471" y="348"/>
      <point x="476" y="321" type="curve"/>
      <point x="534" y="325"/>
      <point x="607" y="334"/>
    </contour>
    <contour>
      <point x="568" y="381" type="line"/>
      <point x="444" y="421" type="line"/>
      <point x="444" y="-96" type="line"/>
      <point x="568" y="-96" type="line"/>
    </contour>
  </outline>
</glyph>
<glyph name="ety048_cid09146_EL" format="1">
  <advance width="1000"/>
  <outline>
    <contour>
      <point x="679" y="445" type="curve"/>
      <point x="651" y="468" type="line"/>
      <point x="613" y="441"/>
      <point x="543" y="407"/>
      <point x="484" y="381" type="curve"/>
      <point x="488" y="375"/>
      <point x="494" y="365"/>
      <point x="496" y="359" type="curve"/>
      <point x="557" y="383"/>
      <point x="627" y="416"/>
    </contour>
    <contour>
      <point x="514" y="381" type="line"/>
      <point x="483" y="381" type="line"/>
      <point x="483" y="-68" type="line"/>
      <point x="514" y="-68" type="line"/>
    </contour>
  </outline>
</glyph>
<glyph name="ety049_cid09146_H" format="1">
  <advance width="1000"/>
  <outline>
    <contour>
      <point x="727" y="426" type="curve"/>
      <point x="633" y="520" type="line"/>
      <point x="592" y="487"/>
      <point x="528" y="449"/>
      <point x="470" y="423" type="curve"/>
      <point x="485" y="398"/>
      <point x="503" y="356"/>
      <point x="509" y="331" type="curve"/>
      <point x="577" y="355"/>
      <point x="659" y="388"/>
    </contour>
    <contour>
      <point x="596" y="422" type="line"/>
      <point x="470" y="422" type="line"/>
      <point x="470" y="-96" type="line"/>
      <point x="596" y="-96" type="line"/>
    </contour>
  </outline>
</glyph>
<glyph name="ety050_cid09168_EL" format="1">
  <advance width="1000"/>
  <outline>
    <contour>
      <point x="496" y="714" type="line"/>
      <point x="469" y="723" type="line"/>
      <point x="469" y="396" type="line"/>
      <point x="496" y="396" type="line"/>
    </contour>
    <contour>
      <point x="632" y="743" type="curve"/>
      <point x="614" y="763" type="line"/>
      <point x="577" y="751"/>
      <point x="514" y="732"/>
      <point x="471" y="723" type="curve"/>
      <point x="486" y="703" type="line"/>
      <point x="530" y="711"/>
      <point x="590" y="721"/>
    </contour>
  </outline>
</glyph>
<glyph name="ety051_cid09168_H" format="1">
  <advance width="1000"/>
  <outline>
    <contour>
      <point x="557" y="739" type="line"/>
      <point x="453" y="774" type="line"/>
      <point x="453" y="367" type="line"/>
      <point x="557" y="367" type="line"/>
    </contour>
    <contour>
      <point x="644" y="723" type="curve"/>
      <point x="580" y="817" type="line"/>
      <point x="546" y="804"/>
      <point x="488" y="781"/>
      <point x="452" y="774" type="curve"/>
      <point x="502" y="691" type="line"/>
      <point x="541" y="695"/>
      <point x="597" y="707"/>
    </contour>
  </outline>
</glyph>
<glyph name="ety053_cid09401_H" format="1">
  <advance width="1000"/>
  <outline>
    <contour>
      <point x="702" y="421" type="curve"/>
      <point x="617" y="521" type="line"/>
      <point x="579" y="488"/>
      <point x="520" y="449"/>
      <point x="467" y="423" type="curve"/>
      <point x="480" y="397"/>
      <point x="497" y="354"/>
      <point x="503" y="328" type="curve"/>
      <point x="565" y="351"/>
      <point x="639" y="383"/>
    </contour>
    <contour>
      <point x="590" y="422" type="line"/>
      <point x="466" y="422" type="line"/>
      <point x="466" y="-96" type="line"/>
      <point x="590" y="-96" type="line"/>
    </contour>
  </outline>
</glyph>
<glyph name="ety054_cid09443_H" format="1">
  <advance width="1000"/>
  <outline>
    <contour>
      <point x="190" y="759" type="line"/>
      <point x="74" y="784" type="line"/>
      <point x="74" y="466" type="line"/>
      <point x="190" y="466" type="line"/>
    </contour>
    <contour>
      <point x="290" y="765" type="curve"/>
      <point x="227" y="851" type="line"/>
      <point x="187" y="830"/>
      <point x="118" y="796"/>
      <point x="74" y="783" type="curve"/>
      <point x="123" y="708" type="line"/>
      <point x="170" y="719"/>
      <point x="236" y="741"/>
    </contour>
  </outline>
</glyph>
<glyph name="ety055_cid09444_EL" format="1">
  <advance width="1000"/>
  <outline>
    <contour>
      <point x="118" y="742" type="line"/>
      <point x="88" y="752" type="line"/>
      <point x="88" y="472" type="line"/>
      <point x="118" y="472" type="line"/>
    </contour>
    <contour>
      <point x="265" y="796" type="curve"/>
      <point x="242" y="817" type="line"/>
      <point x="204" y="797"/>
      <point x="136" y="768"/>
      <point x="89" y="752" type="curve"/>
      <point x="108" y="731" type="line"/>
      <point x="155" y="746"/>
      <point x="219" y="768"/>
    </contour>
  </outline>
</glyph>
<glyph name="ety057_cid09446_EL" format="1">
  <advance width="1000"/>
  <outline>
    <contour>
      <point x="105" y="742" type="line"/>
      <point x="76" y="752" type="line"/>
      <point x="76" y="472" type="line"/>
      <point x="105" y="472" type="line"/>
    </contour>
    <contour>
      <point x="237" y="796" type="curve"/>
      <point x="215" y="817" type="line"/>
      <point x="180" y="797"/>
      <point x="118" y="768"/>
      <point x="76" y="751" type="curve"/>
      <point x="94" y="731" type="line"/>
      <point x="137" y="746"/>
      <point x="195" y="768"/>
    </contour>
  </outline>
</glyph>
<glyph name="ety058_cid09446_H" format="1">
  <advance width="1000"/>
  <outline>
    <contour>
      <point x="174" y="759" type="line"/>
      <point x="58" y="784" type="line"/>
      <point x="58" y="466" type="line"/>
      <point x="174" y="466" type="line"/>
    </contour>
    <contour>
      <point x="274" y="765" type="curve"/>
      <point x="211" y="851" type="line"/>
      <point x="171" y="830"/>
      <point x="102" y="796"/>
      <point x="58" y="783" type="curve"/>
      <point x="107" y="708" type="line"/>
      <point x="154" y="719"/>
      <point x="220" y="741"/>
    </contour>
  </outline>
</glyph>
<glyph name="ety059_cid09447_H" format="1">
  <advance width="1000"/>
  <outline>
    <contour>
      <point x="173" y="759" type="line"/>
      <point x="58" y="784" type="line"/>
      <point x="58" y="466" type="line"/>
      <point x="173" y="466" type="line"/>
    </contour>
    <contour>
      <point x="271" y="765" type="curve"/>
      <point x="209" y="851" type="line"/>
      <point x="169" y="830"/>
      <point x="102" y="796"/>
      <point x="58" y="783" type="curve"/>
      <point x="107" y="708" type="line"/>
      <point x="153" y="719"/>
      <point x="218" y="741"/>
    </contour>
  </outline>
</glyph>
<glyph name="ety061_cid09449_H" format="1">
  <advance width="1000"/>
  <outline>
    <contour>
      <point x="183" y="754" type="line"/>
      <point x="75" y="777" type="line"/>
      <point x="75" y="459" type="line"/>
      <point x="183" y="459" type="line"/>
    </contour>
    <contour>
      <point x="282" y="758" type="curve"/>
      <point x="219" y="844" type="line"/>
      <point x="181" y="823"/>
      <point x="116" y="790"/>
      <point x="75" y="776" type="curve"/>
      <point x="124" y="701" type="line"/>
      <point x="169" y="713"/>
      <point x="231" y="734"/>
    </contour>
  </outline>
</glyph>
<glyph name="ety062_cid09451_EL" format="1">
  <advance width="1000"/>
  <outline>
    <contour>
      <point x="118" y="742" type="line"/>
      <point x="88" y="752" type="line"/>
      <point x="88" y="472" type="line"/>
      <point x="118" y="472" type="line"/>
    </contour>
    <contour>
      <point x="254" y="796" type="curve"/>
      <point x="231" y="817" type="line"/>
      <point x="195" y="797"/>
      <point x="132" y="768"/>
      <point x="87" y="751" type="curve"/>
      <point x="107" y="730" type="line"/>
      <point x="151" y="746"/>
      <point x="211" y="768"/>
    </contour>
  </outline>
</glyph>
<glyph name="ety063_cid09451_H" format="1">
  <advance width="1000"/>
  <outline>
    <contour>
      <point x="172" y="754" type="line"/>
      <point x="64" y="777" type="line"/>
      <point x="64" y="459" type="line"/>
      <point x="172" y="459" type="line"/>
    </contour>
    <contour>
      <point x="271" y="758" type="curve"/>
      <point x="208" y="844" type="line"/>
      <point x="170" y="823"/>
      <point x="105" y="790"/>
      <point x="64" y="776" type="curve"/>
      <point x="113" y="701" type="line"/>
      <point x="158" y="713"/>
      <point x="220" y="734"/>
    </contour>
  </outline>
</glyph>
<glyph name="ety065_cid09474_EL" format="1">
  <advance width="1000"/>
  <outline>
    <contour>
      <point x="696" y="445" type="curve"/>
      <point x="668" y="468" type="line"/>
      <point x="629" y="441"/>
      <point x="560" y="407"/>
      <point x="501" y="381" type="curve"/>
      <point x="505" y="375"/>
      <point x="511" y="365"/>
      <point x="513" y="359" type="curve"/>
      <point x="574" y="383"/>
      <point x="644" y="416"/>
    </contour>
    <contour>
      <point x="530" y="381" type="line"/>
      <point x="500" y="381" type="line"/>
      <point x="500" y="-68" type="line"/>
      <point x="530" y="-68" type="line"/>
    </contour>
  </outline>
</glyph>
<glyph name="ety066_cid09474_H" format="1">
  <advance width="1000"/>
  <outline>
    <contour>
      <point x="725" y="423" type="curve"/>
      <point x="636" y="520" type="line"/>
      <point x="598" y="487"/>
      <point x="539" y="449"/>
      <point x="487" y="423" type="curve"/>
      <point x="501" y="398"/>
      <point x="518" y="357"/>
      <point x="525" y="331" type="curve"/>
      <point x="586" y="355"/>
      <point x="661" y="386"/>
    </contour>
    <contour>
      <point x="612" y="422" type="line"/>
      <point x="486" y="422" type="line"/>
      <point x="486" y="-96" type="line"/>
      <point x="612" y="-96" type="line"/>
    </contour>
  </outline>
</glyph>
<glyph name="ety070_cid10428_EL" format="1">
  <advance width="1000"/>
  <outline>
    <contour>
      <point x="378" y="407" type="line"/>
      <point x="348" y="420" type="line"/>
      <point x="348" y="-70" type="line"/>
      <point x="378" y="-70" type="line"/>
    </contour>
    <contour>
      <point x="544" y="459" type="curve"/>
      <point x="516" y="480" type="line"/>
      <point x="478" y="459"/>
      <point x="408" y="435"/>
      <point x="348" y="419" type="curve"/>
      <point x="353" y="412"/>
      <point x="358" y="402"/>
      <point x="360" y="396" type="curve"/>
      <point x="422" y="411"/>
      <point x="494" y="433"/>
    </contour>
  </outline>
</glyph>
<glyph name="ety071_cid10428_H" format="1">
  <advance width="1000"/>
  <outline>
    <contour>
      <point x="474" y="404" type="line"/>
      <point x="335" y="447" type="line"/>
      <point x="335" y="-94" type="line"/>
      <point x="474" y="-94" type="line"/>
    </contour>
    <contour>
      <point x="594" y="406" type="curve"/>
      <point x="494" y="499" type="line"/>
      <point x="455" y="478"/>
      <point x="393" y="460"/>
      <point x="335" y="448" type="curve"/>
      <point x="349" y="422"/>
      <point x="366" y="378"/>
      <point x="371" y="352" type="curve"/>
      <point x="441" y="361"/>
      <point x="525" y="378"/>
    </contour>
  </outline>
</glyph>
<glyph name="ety072_cid10493_EL" format="1">
  <advance width="1000"/>
  <outline>
    <contour>
      <point x="382" y="720" type="line"/>
      <point x="353" y="730" type="line"/>
      <point x="353" y="395" type="line"/>
      <point x="382" y="395" type="line"/>
    </contour>
    <contour>
      <point x="530" y="789" type="curve"/>
      <point x="507" y="808" type="line"/>
      <point x="469" y="785"/>
      <point x="401" y="751"/>
      <point x="353" y="731" type="curve"/>
      <point x="373" y="715" type="line"/>
      <point x="421" y="732"/>
      <point x="484" y="759"/>
    </contour>
  </outline>
</glyph>
<glyph name="ety073_cid10494_EL" format="1">
  <advance width="1000"/>
  <outline>
    <contour>
      <point x="383" y="722" type="line"/>
      <point x="354" y="732" type="line"/>
      <point x="354" y="384" type="line"/>
      <point x="383" y="384" type="line"/>
    </contour>
    <contour>
      <point x="531" y="791" type="curve"/>
      <point x="508" y="810" type="line"/>
      <point x="470" y="787"/>
      <point x="402" y="753"/>
      <point x="354" y="733" type="curve"/>
      <point x="374" y="717" type="line"/>
      <point x="422" y="734"/>
      <point x="485" y="761"/>
    </contour>
  </outline>
</glyph>
<glyph name="ety074_cid10494_H" format="1">
  <advance width="1000"/>
  <outline>
    <contour>
      <point x="475" y="724" type="line"/>
      <point x="348" y="764" type="line"/>
      <point x="348" y="357" type="line"/>
      <point x="475" y="357" type="line"/>
    </contour>
    <contour>
      <point x="584" y="730" type="curve"/>
      <point x="496" y="835" type="line"/>
      <point x="458" y="812"/>
      <point x="392" y="778"/>
      <point x="348" y="763" type="curve"/>
      <point x="410" y="682" type="line"/>
      <point x="458" y="691"/>
      <point x="518" y="709"/>
    </contour>
  </outline>
</glyph>
<glyph name="ety075_cid10571_EL" format="1">
  <advance width="1000"/>
  <outline>
    <contour>
      <point x="474" y="549" type="line"/>
      <point x="444" y="561" type="line"/>
      <point x="444" y="166" type="line"/>
      <point x="474" y="166" type="line"/>
    </contour>
    <contour>
      <point x="831" y="577" type="curve"/>
      <point x="810" y="604" type="line"/>
      <point x="727" y="583"/>
      <point x="569" y="568"/>
      <point x="444" y="560" type="curve"/>
      <point x="449" y="551"/>
      <point x="453" y="540"/>
      <point x="455" y="533" type="curve"/>
      <point x="580" y="539"/>
      <point x="738" y="556"/>
    </contour>
  </outline>
</glyph>
<glyph name="ety076_cid10777_H" format="1">
  <advance width="1000"/>
  <outline>
    <contour>
      <point x="671" y="539" type="line"/>
      <point x="569" y="539" type="line"/>
      <point x="569" y="336" type="line"/>
      <point x="671" y="336" type="line"/>
    </contour>
    <contour>
      <point x="777" y="631" type="curve"/>
      <point x="680" y="661" type="line"/>
      <point x="656" y="625"/>
      <point x="614" y="574"/>
      <point x="577" y="539" type="curve"/>
      <point x="638" y="513" type="line"/>
      <point x="677" y="542"/>
      <point x="730" y="588"/>
    </contour>
  </outline>
</glyph>
<glyph name="ety077_cid11918_H" format="1">
  <advance width="1000"/>
  <outline>
    <contour>
      <point x="253" y="701" type="line"/>
      <point x="118" y="743" type="line"/>
      <point x="118" y="407" type="line"/>
      <point x="253" y="407" type="line"/>
    </contour>
    <contour>
      <point x="415" y="727" type="curve"/>
      <point x="330" y="831" type="line"/>
      <point x="275" y="801"/>
      <point x="181" y="761"/>
      <point x="118" y="744" type="curve"/>
      <point x="177" y="661" type="line"/>
      <point x="245" y="674"/>
      <point x="333" y="699"/>
    </contour>
  </outline>
</glyph>
<glyph name="ety081_cid12691_EL" format="1">
  <advance width="1000"/>
  <outline>
    <contour>
      <point x="596" y="765" type="curve"/>
      <point x="569" y="786" type="line"/>
      <point x="530" y="764"/>
      <point x="460" y="738"/>
      <point x="400" y="721" type="curve"/>
      <point x="405" y="714"/>
      <point x="410" y="705"/>
      <point x="412" y="698" type="curve"/>
      <point x="474" y="715"/>
      <point x="546" y="739"/>
    </contour>
    <contour>
      <point x="429" y="711" type="line"/>
      <point x="400" y="720" type="line"/>
      <point x="400" y="397" type="line"/>
      <point x="429" y="397" type="line"/>
    </contour>
  </outline>
</glyph>
<glyph name="ety084_cid12693_H" format="1">
  <advance width="1000"/>
  <outline>
    <contour>
      <point x="497" y="715" type="line"/>
      <point x="376" y="753" type="line"/>
      <point x="376" y="358" type="line"/>
      <point x="497" y="358" type="line"/>
    </contour>
    <contour>
      <point x="608" y="733" type="curve"/>
      <point x="523" y="833" type="line"/>
      <point x="485" y="808"/>
      <point x="419" y="771"/>
      <point x="376" y="754" type="curve"/>
      <point x="435" y="676" type="line"/>
      <point x="483" y="688"/>
      <point x="544" y="709"/>
    </contour>
  </outline>
</glyph>
<glyph name="ety085_cid13106_EL" format="1">
  <advance width="1000"/>
  <outline>
    <contour>
      <point x="387" y="194" type="line"/>
      <point x="358" y="204" type="line"/>
      <point x="358" y="-57" type="line"/>
      <point x="387" y="-57" type="line"/>
    </contour>
    <contour>
      <point x="612" y="238" type="curve"/>
      <point x="583" y="260" type="line"/>
      <point x="533" y="239"/>
      <point x="438" y="219"/>
      <point x="358" y="206" type="curve"/>
      <point x="363" y="198"/>
      <point x="368" y="188"/>
      <point x="370" y="181" type="curve"/>
      <point x="452" y="194"/>
      <point x="548" y="214"/>
    </contour>
  </outline>
</glyph>
<glyph name="ety086_cid13106_H" format="1">
  <advance width="1000"/>
  <outline>
    <contour>
      <point x="489" y="184" type="line"/>
      <point x="371" y="216" type="line"/>
      <point x="371" y="-80" type="line"/>
      <point x="489" y="-80" type="line"/>
    </contour>
    <contour>
      <point x="646" y="199" type="curve"/>
      <point x="587" y="271" type="line"/>
      <point x="536" y="248"/>
      <point x="448" y="228"/>
      <point x="371" y="217" type="curve"/>
      <point x="379" y="197"/>
      <point x="389" y="162"/>
      <point x="392" y="141" type="curve"/>
      <point x="475" y="150"/>
      <point x="574" y="168"/>
    </contour>
  </outline>
</glyph>
<glyph name="ety087_cid13107_EL" format="1">
  <advance width="1000"/>
  <outline>
    <contour>
      <point x="387" y="195" type="line"/>
      <point x="358" y="205" type="line"/>
      <point x="358" y="-56" type="line"/>
      <point x="387" y="-56" type="line"/>
    </contour>
    <contour>
      <point x="612" y="238" type="curve"/>
      <point x="583" y="260" type="line"/>
      <point x="533" y="239"/>
      <point x="438" y="219"/>
      <point x="358" y="206" type="curve"/>
      <point x="363" y="198"/>
      <point x="368" y="188"/>
      <point x="370" y="181" type="curve"/>
      <point x="452" y="194"/>
      <point x="548" y="214"/>
    </contour>
  </outline>
</glyph>
<glyph name="ety088_cid13107_H" format="1">
  <advance width="1000"/>
  <outline>
    <contour>
      <point x="492" y="192" type="line"/>
      <point x="370" y="218" type="line"/>
      <point x="370" y="-88" type="line"/>
      <point x="492" y="-88" type="line"/>
    </contour>
    <contour>
      <point x="653" y="191" type="curve"/>
      <point x="588" y="272" type="line"/>
      <point x="533" y="250"/>
      <point x="446" y="231"/>
      <point x="370" y="219" type="curve"/>
      <point x="381" y="197"/>
      <point x="394" y="163"/>
      <point x="398" y="141" type="curve"/>
      <point x="479" y="149"/>
      <point x="578" y="166"/>
    </contour>
  </outline>
</glyph>
<glyph name="ety089_cid13386_H" format="1">
  <advance width="1000"/>
  <outline>
    <contour>
      <point x="579" y="722" type="line"/>
      <point x="436" y="767" type="line"/>
      <point x="436" y="3" type="line"/>
      <point x="579" y="3" type="line"/>
    </contour>
    <contour>
      <point x="938" y="733" type="curve"/>
      <point x="823" y="843" type="line"/>
      <point x="726" y="813"/>
      <point x="573" y="785"/>
      <point x="435" y="768" type="curve"/>
      <point x="451" y="739"/>
      <point x="470" y="687"/>
      <point x="475" y="655" type="curve"/>
      <point x="623" y="669"/>
      <point x="798" y="695"/>
    </contour>
  </outline>
</glyph>
<glyph name="ety090_cid13767_H" format="1">
  <advance width="1000"/>
  <outline>
    <contour>
      <point x="636" y="412" type="curve"/>
      <point x="538" y="509" type="line"/>
      <point x="494" y="476"/>
      <point x="426" y="437"/>
      <point x="363" y="411" type="curve"/>
      <point x="378" y="385"/>
      <point x="396" y="342"/>
      <point x="403" y="315" type="curve"/>
      <point x="476" y="339"/>
      <point x="563" y="373"/>
    </contour>
    <contour>
      <point x="498" y="410" type="line"/>
      <point x="363" y="410" type="line"/>
      <point x="363" y="-94" type="line"/>
      <point x="498" y="-94" type="line"/>
    </contour>
  </outline>
</glyph>
<glyph name="ety091_cid15038_EL" format="1">
  <advance width="1000"/>
  <outline>
    <contour>
      <point x="606" y="761" type="curve"/>
      <point x="578" y="782" type="line"/>
      <point x="540" y="760"/>
      <point x="470" y="734"/>
      <point x="410" y="718" type="curve"/>
      <point x="415" y="710"/>
      <point x="420" y="701"/>
      <point x="422" y="694" type="curve"/>
      <point x="483" y="711"/>
      <point x="556" y="735"/>
    </contour>
    <contour>
      <point x="438" y="707" type="line"/>
      <point x="409" y="717" type="line"/>
      <point x="409" y="397" type="line"/>
      <point x="438" y="397" type="line"/>
    </contour>
  </outline>
</glyph>
<glyph name="ety092_cid15038_H" format="1">
  <advance width="1000"/>
  <outline>
    <contour>
      <point x="656" y="738" type="curve"/>
      <point x="559" y="832" type="line"/>
      <point x="523" y="803"/>
      <point x="465" y="772"/>
      <point x="411" y="751" type="curve"/>
      <point x="425" y="726"/>
      <point x="443" y="683"/>
      <point x="449" y="657" type="curve"/>
      <point x="514" y="675"/>
      <point x="591" y="702"/>
    </contour>
    <contour>
      <point x="526" y="714" type="line"/>
      <point x="409" y="751" type="line"/>
      <point x="409" y="372" type="line"/>
      <point x="526" y="372" type="line"/>
    </contour>
  </outline>
</glyph>
<glyph name="ety093_cid15039_H" format="1">
  <advance width="1000"/>
  <outline>
    <contour>
      <point x="521" y="715" type="line"/>
      <point x="400" y="753" type="line"/>
      <point x="400" y="358" type="line"/>
      <point x="521" y="358" type="line"/>
    </contour>
    <contour>
      <point x="632" y="733" type="curve"/>
      <point x="547" y="833" type="line"/>
      <point x="509" y="808"/>
      <point x="443" y="771"/>
      <point x="400" y="754" type="curve"/>
      <point x="459" y="676" type="line"/>
      <point x="507" y="688"/>
      <point x="568" y="709"/>
    </contour>
  </outline>
</glyph>
<glyph name="ety095_cid15066_EL" format="1">
  <advance width="1000"/>
  <outline>
    <contour>
      <point x="622" y="448" type="curve"/>
      <point x="593" y="471" type="line"/>
      <point x="550" y="444"/>
      <point x="473" y="409"/>
      <point x="406" y="384" type="curve"/>
      <point x="410" y="376"/>
      <point x="416" y="368"/>
      <point x="418" y="361" type="curve"/>
      <point x="486" y="385"/>
      <point x="565" y="418"/>
    </contour>
    <contour>
      <point x="435" y="384" type="line"/>
      <point x="405" y="384" type="line"/>
      <point x="405" y="-70" type="line"/>
      <point x="435" y="-70" type="line"/>
    </contour>
  </outline>
</glyph>
<glyph name="ety096_cid15066_H" format="1">
  <advance width="1000"/>
  <outline>
    <contour>
      <point x="651" y="403" type="curve"/>
      <point x="553" y="500" type="line"/>
      <point x="515" y="470"/>
      <point x="455" y="435"/>
      <point x="400" y="411" type="curve"/>
      <point x="414" y="385"/>
      <point x="432" y="342"/>
      <point x="439" y="315" type="curve"/>
      <point x="505" y="336"/>
      <point x="584" y="367"/>
    </contour>
    <contour>
      <point x="533" y="410" type="line"/>
      <point x="399" y="410" type="line"/>
      <point x="399" y="-94" type="line"/>
      <point x="533" y="-94" type="line"/>
    </contour>
  </outline>
</glyph>
<glyph name="ety098_cid15067_H" format="1">
  <advance width="1000"/>
  <outline>
    <contour>
      <point x="666" y="403" type="curve"/>
      <point x="565" y="500" type="line"/>
      <point x="524" y="470"/>
      <point x="458" y="434"/>
      <point x="399" y="411" type="curve"/>
      <point x="414" y="385"/>
      <point x="432" y="341"/>
      <point x="439" y="315" type="curve"/>
      <point x="509" y="336"/>
      <point x="594" y="367"/>
    </contour>
    <contour>
      <point x="538" y="410" type="line"/>
      <point x="399" y="410" type="line"/>
      <point x="399" y="-94" type="line"/>
      <point x="538" y="-94" type="line"/>
    </contour>
  </outline>
</glyph>
<glyph name="ety100_cid15079_H" format="1">
  <advance width="1000"/>
  <outline>
    <contour>
      <point x="571" y="562" type="line"/>
      <point x="438" y="589" type="line"/>
      <point x="438" y="178" type="line"/>
      <point x="571" y="178" type="line"/>
    </contour>
    <contour>
      <point x="914" y="514" type="curve"/>
      <point x="865" y="633" type="line"/>
      <point x="746" y="611"/>
      <point x="583" y="596"/>
      <point x="437" y="589" type="curve"/>
      <point x="450" y="558"/>
      <point x="464" y="512"/>
      <point x="467" y="480" type="curve"/>
      <point x="611" y="481"/>
      <point x="783" y="492"/>
    </contour>
  </outline>
</glyph>
<glyph name="ety101_cid15589_H" format="1">
  <advance width="1000"/>
  <outline>
    <contour>
      <point x="848" y="512" type="curve"/>
      <point x="787" y="629" type="line"/>
      <point x="621" y="597"/>
      <point x="380" y="574"/>
      <point x="164" y="563" type="curve"/>
      <point x="177" y="533"/>
      <point x="193" y="484"/>
      <point x="196" y="450" type="curve"/>
      <point x="410" y="457"/>
      <point x="659" y="477"/>
    </contour>
    <contour>
      <point x="316" y="562" type="line"/>
      <point x="165" y="562" type="line"/>
      <point x="165" y="193" type="line"/>
      <point x="316" y="193" type="line"/>
    </contour>
  </outline>
</glyph>
<glyph name="ety102_cid15688_H" format="1">
  <advance width="1000"/>
  <outline>
    <contour>
      <point x="496" y="587" type="curve"/>
      <point x="413" y="673" type="line"/>
      <point x="356" y="648"/>
      <point x="264" y="625"/>
      <point x="182" y="611" type="curve"/>
      <point x="195" y="587"/>
      <point x="210" y="548"/>
      <point x="214" y="524" type="curve"/>
      <point x="305" y="535"/>
      <point x="413" y="556"/>
    </contour>
    <contour>
      <point x="310" y="588" type="line"/>
      <point x="182" y="610" type="line"/>
      <point x="182" y="353" type="line"/>
      <point x="310" y="353" type="line"/>
    </contour>
  </outline>
</glyph>
<glyph name="ety103_cid16039_EL" format="1">
  <advance width="1000"/>
  <outline>
    <contour>
      <point x="807" y="784" type="curve"/>
      <point x="780" y="809" type="line"/>
      <point x="653" y="782"/>
      <point x="414" y="757"/>
      <point x="216" y="743" type="curve"/>
      <point x="220" y="735"/>
      <point x="224" y="724"/>
      <point x="225" y="718" type="curve"/>
      <point x="426" y="730"/>
      <point x="662" y="755"/>
    </contour>
    <contour>
      <point x="245" y="732" type="line"/>
      <point x="216" y="742" type="line"/>
      <point x="216" y="323" type="line"/>
      <point x="245" y="323" type="line"/>
    </contour>
  </outline>
</glyph>
<glyph name="ety105_cid16806_H" format="1">
  <advance width="1000"/>
  <outline>
    <contour>
      <point x="683" y="377" type="curve"/>
      <point x="594" y="477" type="line"/>
      <point x="554" y="444"/>
      <point x="493" y="405"/>
      <point x="438" y="379" type="curve"/>
      <point x="452" y="353"/>
      <point x="469" y="310"/>
      <point x="475" y="284" type="curve"/>
      <point x="539" y="307"/>
      <point x="617" y="339"/>
    </contour>
    <contour>
      <point x="566" y="379" type="line"/>
      <point x="437" y="379" type="line"/>
      <point x="437" y="-94" type="line"/>
      <point x="566" y="-94" type="line"/>
    </contour>
  </outline>
</glyph>
<glyph name="ety106_cid17033_EL" format="1">
  <advance width="1000"/>
  <outline>
    <contour>
      <point x="303" y="581" type="line"/>
      <point x="274" y="592" type="line"/>
      <point x="274" y="320" type="line"/>
      <point x="303" y="320" type="line"/>
    </contour>
    <contour>
      <point x="484" y="602" type="curve"/>
      <point x="467" y="624" type="line"/>
      <point x="418" y="616"/>
      <point x="331" y="599"/>
      <point x="274" y="593" type="curve"/>
      <point x="287" y="572" type="line"/>
      <point x="346" y="576"/>
      <point x="428" y="584"/>
    </contour>
  </outline>
</glyph>
<glyph name="ety107_cid18272_EL" format="1">
  <advance width="1000"/>
  <outline>
    <contour>
      <point x="486" y="464" type="curve"/>
      <point x="462" y="486" type="line"/>
      <point x="407" y="465"/>
      <point x="304" y="444"/>
      <point x="220" y="431" type="curve"/>
      <point x="225" y="424"/>
      <point x="229" y="414"/>
      <point x="231" y="407" type="curve"/>
      <point x="317" y="419"/>
      <point x="421" y="439"/>
    </contour>
    <contour>
      <point x="249" y="419" type="line"/>
      <point x="220" y="430" type="line"/>
      <point x="220" y="220" type="line"/>
      <point x="249" y="220" type="line"/>
    </contour>
  </outline>
</glyph>
<glyph name="ety108_cid18272_H" format="1">
  <advance width="1000"/>
  <outline>
    <contour>
      <point x="524" y="423" type="curve"/>
      <point x="455" y="491" type="line"/>
      <point x="391" y="473"/>
      <point x="282" y="459"/>
      <point x="188" y="452" type="curve"/>
      <point x="197" y="433"/>
      <point x="209" y="402"/>
      <point x="213" y="382" type="curve"/>
      <point x="314" y="386"/>
      <point x="436" y="399"/>
    </contour>
    <contour>
      <point x="321" y="428" type="line"/>
      <point x="188" y="453" type="line"/>
      <point x="188" y="219" type="line"/>
      <point x="321" y="219" type="line"/>
    </contour>
  </outline>
</glyph>
<glyph name="ety109_cid18441_H" format="1">
  <advance width="1000"/>
  <outline>
    <contour>
      <point x="689" y="538" type="line"/>
      <point x="590" y="538" type="line"/>
      <point x="590" y="335" type="line"/>
      <point x="689" y="335" type="line"/>
    </contour>
    <contour>
      <point x="789" y="630" type="curve"/>
      <point x="693" y="660" type="line"/>
      <point x="668" y="623"/>
      <point x="625" y="572"/>
      <point x="589" y="538" type="curve"/>
      <point x="658" y="511" type="line"/>
      <point x="697" y="540"/>
      <point x="745" y="586"/>
    </contour>
  </outline>
</glyph>
<glyph name="ety111_cid19082_EL" format="1">
  <advance width="1000"/>
  <outline>
    <contour>
      <point x="477" y="735" type="line"/>
      <point x="448" y="745" type="line"/>
      <point x="448" y="342" type="line"/>
      <point x="477" y="342" type="line"/>
    </contour>
    <contour>
      <point x="870" y="795" type="curve"/>
      <point x="843" y="818" type="line"/>
      <point x="755" y="790"/>
      <point x="587" y="763"/>
      <point x="448" y="746" type="curve"/>
      <point x="452" y="738"/>
      <point x="457" y="727"/>
      <point x="458" y="720" type="curve"/>
      <point x="600" y="737"/>
      <point x="768" y="764"/>
    </contour>
  </outline>
</glyph>
<glyph name="ety112_cid19134_H" format="1">
  <advance width="1000"/>
  <outline>
    <contour>
      <point x="666" y="408" type="curve"/>
      <point x="565" y="505" type="line"/>
      <point x="520" y="472"/>
      <point x="450" y="433"/>
      <point x="386" y="407" type="curve"/>
      <point x="401" y="381"/>
      <point x="420" y="338"/>
      <point x="426" y="311" type="curve"/>
      <point x="501" y="335"/>
      <point x="591" y="369"/>
    </contour>
    <contour>
      <point x="524" y="406" type="line"/>
      <point x="385" y="406" type="line"/>
      <point x="385" y="-89" type="line"/>
      <point x="524" y="-89" type="line"/>
    </contour>
  </outline>
</glyph>
<glyph name="ety113_cid19246_H" format="1">
  <advance width="1000"/>
  <outline>
    <contour>
      <point x="600" y="362" type="curve"/>
      <point x="540" y="483" type="line"/>
      <point x="496" y="460"/>
      <point x="436" y="434"/>
      <point x="385" y="416" type="curve"/>
      <point x="397" y="387"/>
      <point x="411" y="343"/>
      <point x="416" y="315" type="curve"/>
      <point x="469" y="326"/>
      <point x="534" y="342"/>
    </contour>
    <contour>
      <point x="513" y="376" type="line"/>
      <point x="386" y="416" type="line"/>
      <point x="386" y="-93" type="line"/>
      <point x="513" y="-93" type="line"/>
    </contour>
  </outline>
</glyph>
<glyph name="ety114_cid19247_EL" format="1">
  <advance width="1000"/>
  <outline>
    <contour>
      <point x="434" y="407" type="line"/>
      <point x="405" y="420" type="line"/>
      <point x="405" y="-74" type="line"/>
      <point x="434" y="-74" type="line"/>
    </contour>
    <contour>
      <point x="601" y="459" type="curve"/>
      <point x="573" y="480" type="line"/>
      <point x="535" y="459"/>
      <point x="465" y="435"/>
      <point x="405" y="419" type="curve"/>
      <point x="410" y="412"/>
      <point x="415" y="402"/>
      <point x="417" y="396" type="curve"/>
      <point x="478" y="411"/>
      <point x="551" y="433"/>
    </contour>
  </outline>
</glyph>
<glyph name="ety115_cid19247_H" format="1">
  <advance width="1000"/>
  <outline>
    <contour>
      <point x="506" y="395" type="line"/>
      <point x="367" y="438" type="line"/>
      <point x="367" y="-95" type="line"/>
      <point x="506" y="-95" type="line"/>
    </contour>
    <contour>
      <point x="614" y="406" type="curve"/>
      <point x="514" y="498" type="line"/>
      <point x="478" y="475"/>
      <point x="421" y="453"/>
      <point x="367" y="439" type="curve"/>
      <point x="382" y="413"/>
      <point x="399" y="370"/>
      <point x="405" y="344" type="curve"/>
      <point x="470" y="355"/>
      <point x="550" y="375"/>
    </contour>
  </outline>
</glyph>
<glyph name="ety117_cid19371_H" format="1">
  <advance width="1000"/>
  <outline>
    <contour>
      <point x="624" y="738" type="curve"/>
      <point x="528" y="832" type="line"/>
      <point x="492" y="803"/>
      <point x="434" y="772"/>
      <point x="380" y="751" type="curve"/>
      <point x="395" y="726"/>
      <point x="412" y="683"/>
      <point x="419" y="657" type="curve"/>
      <point x="483" y="675"/>
      <point x="560" y="702"/>
    </contour>
    <contour>
      <point x="503" y="712" type="line"/>
      <point x="379" y="751" type="line"/>
      <point x="379" y="372" type="line"/>
      <point x="503" y="372" type="line"/>
    </contour>
  </outline>
</glyph>
<glyph name="ety118_cid19372_EL" format="1">
  <advance width="1000"/>
  <outline>
    <contour>
      <point x="378" y="726" type="line"/>
      <point x="348" y="736" type="line"/>
      <point x="348" y="405" type="line"/>
      <point x="378" y="405" type="line"/>
    </contour>
    <contour>
      <point x="534" y="779" type="curve"/>
      <point x="514" y="801" type="line"/>
      <point x="472" y="781"/>
      <point x="398" y="751"/>
      <point x="347" y="736" type="curve"/>
      <point x="364" y="716" type="line"/>
      <point x="415" y="730"/>
      <point x="485" y="752"/>
    </contour>
  </outline>
</glyph>
<glyph name="ety119_cid19372_H" format="1">
  <advance width="1000"/>
  <outline>
    <contour>
      <point x="473" y="709" type="line"/>
      <point x="347" y="749" type="line"/>
      <point x="347" y="386" type="line"/>
      <point x="473" y="386" type="line"/>
    </contour>
    <contour>
      <point x="583" y="725" type="curve"/>
      <point x="495" y="829" type="line"/>
      <point x="457" y="804"/>
      <point x="391" y="767"/>
      <point x="348" y="750" type="curve"/>
      <point x="409" y="669" type="line"/>
      <point x="457" y="680"/>
      <point x="518" y="701"/>
    </contour>
  </outline>
</glyph>
<glyph name="ety120_cid19373_EL" format="1">
  <advance width="1000"/>
  <outline>
    <contour>
      <point x="392" y="726" type="line"/>
      <point x="363" y="736" type="line"/>
      <point x="363" y="405" type="line"/>
      <point x="392" y="405" type="line"/>
    </contour>
    <contour>
      <point x="549" y="779" type="curve"/>
      <point x="528" y="801" type="line"/>
      <point x="486" y="781"/>
      <point x="413" y="751"/>
      <point x="362" y="736" type="curve"/>
      <point x="378" y="716" type="line"/>
      <point x="429" y="730"/>
      <point x="500" y="752"/>
    </contour>
  </outline>
</glyph>
<glyph name="ety121_cid19373_H" format="1">
  <advance width="1000"/>
  <outline>
    <contour>
      <point x="472" y="717" type="line"/>
      <point x="354" y="754" type="line"/>
      <point x="354" y="391" type="line"/>
      <point x="472" y="391" type="line"/>
    </contour>
    <contour>
      <point x="590" y="730" type="curve"/>
      <point x="502" y="834" type="line"/>
      <point x="464" y="809"/>
      <point x="398" y="772"/>
      <point x="355" y="755" type="curve"/>
      <point x="416" y="674" type="line"/>
      <point x="464" y="685"/>
      <point x="525" y="706"/>
    </contour>
  </outline>
</glyph>
<glyph name="ety123_cid19460_EL" format="1">
  <advance width="1000"/>
  <outline>
    <contour>
      <point x="494" y="549" type="line"/>
      <point x="465" y="561" type="line"/>
      <point x="465" y="166" type="line"/>
      <point x="494" y="166" type="line"/>
    </contour>
    <contour>
      <point x="852" y="577" type="curve"/>
      <point x="830" y="604" type="line"/>
      <point x="748" y="583"/>
      <point x="589" y="568"/>
      <point x="465" y="560" type="curve"/>
      <point x="470" y="551"/>
      <point x="474" y="540"/>
      <point x="476" y="533" type="curve"/>
      <point x="601" y="539"/>
      <point x="759" y="556"/>
    </contour>
  </outline>
</glyph>
<glyph name="ety124_cid19472_H" format="1">
  <advance width="1000"/>
  <outline>
    <contour>
      <point x="640" y="261" type="curve"/>
      <point x="576" y="353" type="line"/>
      <point x="526" y="330"/>
      <point x="446" y="297"/>
      <point x="391" y="285" type="curve"/>
      <point x="446" y="197" type="line"/>
      <point x="502" y="209"/>
      <point x="581" y="233"/>
    </contour>
    <contour>
      <point x="509" y="257" type="line"/>
      <point x="390" y="285" type="line"/>
      <point x="390" y="-98" type="line"/>
      <point x="509" y="-98" type="line"/>
    </contour>
  </outline>
</glyph>
<glyph name="ety125_cid19999_EL" format="1">
  <advance width="1000"/>
  <outline>
    <contour>
      <point x="125" y="441" type="line"/>
      <point x="95" y="451" type="line"/>
      <point x="95" y="-39" type="line"/>
      <point x="125" y="-39" type="line"/>
    </contour>
    <contour>
      <point x="270" y="464" type="curve"/>
      <point x="249" y="486" type="line"/>
      <point x="211" y="477"/>
      <point x="141" y="459"/>
      <point x="94" y="451" type="curve"/>
      <point x="110" y="432" type="line"/>
      <point x="158" y="438"/>
      <point x="224" y="448"/>
    </contour>
  </outline>
</glyph>
<glyph name="ety126_cid21873_EL" format="1">
  <advance width="1000"/>
  <outline>
    <contour>
      <point x="602" y="448" type="curve"/>
      <point x="574" y="471" type="line"/>
      <point x="530" y="444"/>
      <point x="453" y="409"/>
      <point x="386" y="384" type="curve"/>
      <point x="390" y="376"/>
      <point x="396" y="368"/>
      <point x="398" y="361" type="curve"/>
      <point x="467" y="385"/>
      <point x="545" y="418"/>
    </contour>
    <contour>
      <point x="416" y="384" type="line"/>
      <point x="385" y="384" type="line"/>
      <point x="385" y="-70" type="line"/>
      <point x="416" y="-70" type="line"/>
    </contour>
  </outline>
</glyph>
<glyph name="ety128_cid21917_EL" format="1">
  <advance width="1000"/>
  <outline>
    <contour>
      <point x="485" y="549" type="line"/>
      <point x="456" y="561" type="line"/>
      <point x="456" y="166" type="line"/>
      <point x="485" y="166" type="line"/>
    </contour>
    <contour>
      <point x="843" y="577" type="curve"/>
      <point x="821" y="604" type="line"/>
      <point x="739" y="583"/>
      <point x="580" y="568"/>
      <point x="456" y="560" type="curve"/>
      <point x="461" y="551"/>
      <point x="465" y="540"/>
      <point x="467" y="533" type="curve"/>
      <point x="592" y="539"/>
      <point x="750" y="556"/>
    </contour>
  </outline>
</glyph>
<glyph name="ety129_cid21917_H" format="1">
  <advance width="1000"/>
  <outline>
    <contour>
      <point x="561" y="562" type="line"/>
      <point x="428" y="589" type="line"/>
      <point x="428" y="178" type="line"/>
      <point x="561" y="178" type="line"/>
    </contour>
    <contour>
      <point x="904" y="514" type="curve"/>
      <point x="855" y="633" type="line"/>
      <point x="736" y="611"/>
      <point x="573" y="596"/>
      <point x="427" y="589" type="curve"/>
      <point x="440" y="558"/>
      <point x="454" y="512"/>
      <point x="457" y="480" type="curve"/>
      <point x="601" y="481"/>
      <point x="773" y="492"/>
    </contour>
  </outline>
</glyph>
<glyph name="ety130_cid21986_H" format="1">
  <advance width="1000"/>
  <outline>
    <contour>
      <point x="652" y="261" type="curve"/>
      <point x="587" y="353" type="line"/>
      <point x="540" y="330"/>
      <point x="464" y="297"/>
      <point x="413" y="284" type="curve"/>
      <point x="468" y="197" type="line"/>
      <point x="521" y="209"/>
      <point x="596" y="233"/>
    </contour>
    <contour>
      <point x="531" y="257" type="line"/>
      <point x="412" y="285" type="line"/>
      <point x="412" y="-94" type="line"/>
      <point x="531" y="-94" type="line"/>
    </contour>
  </outline>
</glyph>
<glyph name="ety131_cid22241_H" format="1">
  <advance width="1000"/>
  <outline>
    <contour>
      <point x="423" y="726" type="line"/>
      <point x="321" y="775" type="line"/>
      <point x="321" y="408" type="line"/>
      <point x="423" y="408" type="line"/>
    </contour>
    <contour>
      <point x="499" y="737" type="curve"/>
      <point x="427" y="834" type="line"/>
      <point x="400" y="816"/>
      <point x="352" y="786"/>
      <point x="321" y="774" type="curve"/>
      <point x="376" y="693" type="line"/>
      <point x="409" y="701"/>
      <point x="454" y="718"/>
    </contour>
  </outline>
</glyph>
<glyph name="ety133_cid22467_H" format="1">
  <advance width="1000"/>
  <outline>
    <contour>
      <point x="485" y="184" type="line"/>
      <point x="366" y="216" type="line"/>
      <point x="366" y="-80" type="line"/>
      <point x="485" y="-80" type="line"/>
    </contour>
    <contour>
      <point x="644" y="199" type="curve"/>
      <point x="584" y="271" type="line"/>
      <point x="533" y="248"/>
      <point x="444" y="228"/>
      <point x="367" y="217" type="curve"/>
      <point x="375" y="197"/>
      <point x="384" y="162"/>
      <point x="387" y="141" type="curve"/>
      <point x="471" y="150"/>
      <point x="571" y="168"/>
    </contour>
  </outline>
</glyph>
<glyph name="ety134_cid22556_EL" format="1">
  <advance width="1000"/>
  <outline>
    <contour>
      <point x="276" y="437" type="curve"/>
      <point x="247" y="460" type="line"/>
      <point x="209" y="433"/>
      <point x="139" y="399"/>
      <point x="81" y="374" type="curve"/>
      <point x="84" y="367"/>
      <point x="90" y="357"/>
      <point x="92" y="351" type="curve"/>
      <point x="153" y="376"/>
      <point x="224" y="408"/>
    </contour>
    <contour>
      <point x="109" y="374" type="line"/>
      <point x="80" y="374" type="line"/>
      <point x="80" y="-72" type="line"/>
      <point x="109" y="-72" type="line"/>
    </contour>
  </outline>
</glyph>
<glyph name="ety135_cid22556_H" format="1">
  <advance width="1000"/>
  <outline>
    <contour>
      <point x="296" y="422" type="curve"/>
      <point x="214" y="524" type="line"/>
      <point x="172" y="491"/>
      <point x="109" y="452"/>
      <point x="51" y="426" type="curve"/>
      <point x="65" y="400"/>
      <point x="81" y="357"/>
      <point x="87" y="330" type="curve"/>
      <point x="152" y="353"/>
      <point x="230" y="385"/>
    </contour>
    <contour>
      <point x="177" y="425" type="line"/>
      <point x="50" y="425" type="line"/>
      <point x="50" y="-93" type="line"/>
      <point x="177" y="-93" type="line"/>
    </contour>
  </outline>
</glyph>
<glyph name="ety136_cid22562_EL" format="1">
  <advance width="1000"/>
  <outline>
    <contour>
      <point x="110" y="441" type="line"/>
      <point x="81" y="451" type="line"/>
      <point x="81" y="-39" type="line"/>
      <point x="110" y="-39" type="line"/>
    </contour>
    <contour>
      <point x="255" y="463" type="curve"/>
      <point x="234" y="486" type="line"/>
      <point x="196" y="476"/>
      <point x="127" y="459"/>
      <point x="80" y="451" type="curve"/>
      <point x="96" y="432" type="line"/>
      <point x="143" y="437"/>
      <point x="209" y="447"/>
    </contour>
  </outline>
</glyph>
<glyph name="ety137_cid22562_H" format="1">
  <advance width="1000"/>
  <outline>
    <contour>
      <point x="165" y="422" type="line"/>
      <point x="45" y="461" type="line"/>
      <point x="45" y="-68" type="line"/>
      <point x="165" y="-68" type="line"/>
    </contour>
    <contour>
      <point x="261" y="394" type="curve"/>
      <point x="183" y="503" type="line"/>
      <point x="148" y="490"/>
      <point x="84" y="467"/>
      <point x="46" y="461" type="curve"/>
      <point x="99" y="377" type="line"/>
      <point x="142" y="378"/>
      <point x="197" y="383"/>
    </contour>
  </outline>
</glyph>
<glyph name="ety138_cid22563_EL" format="1">
  <advance width="1000"/>
  <outline>
    <contour>
      <point x="110" y="441" type="line"/>
      <point x="81" y="451" type="line"/>
      <point x="81" y="-39" type="line"/>
      <point x="110" y="-39" type="line"/>
    </contour>
    <contour>
      <point x="255" y="464" type="curve"/>
      <point x="234" y="486" type="line"/>
      <point x="196" y="477"/>
      <point x="127" y="459"/>
      <point x="80" y="451" type="curve"/>
      <point x="95" y="432" type="line"/>
      <point x="143" y="438"/>
      <point x="209" y="448"/>
    </contour>
  </outline>
</glyph>
<glyph name="ety139_cid22748_EL" format="1">
  <advance width="1000"/>
  <outline>
    <contour>
      <point x="538" y="549" type="line"/>
      <point x="509" y="561" type="line"/>
      <point x="509" y="166" type="line"/>
      <point x="538" y="166" type="line"/>
    </contour>
    <contour>
      <point x="846" y="577" type="curve"/>
      <point x="824" y="603" type="line"/>
      <point x="753" y="583"/>
      <point x="617" y="569"/>
      <point x="509" y="560" type="curve"/>
      <point x="513" y="552"/>
      <point x="518" y="541"/>
      <point x="520" y="533" type="curve"/>
      <point x="628" y="539"/>
      <point x="765" y="556"/>
    </contour>
  </outline>
</glyph>
<glyph name="ety140_cid22748_H" format="1">
  <advance width="1000"/>
  <outline>
    <contour>
      <point x="599" y="562" type="line"/>
      <point x="466" y="589" type="line"/>
      <point x="466" y="178" type="line"/>
      <point x="599" y="178" type="line"/>
    </contour>
    <contour>
      <point x="929" y="513" type="curve"/>
      <point x="878" y="632" type="line"/>
      <point x="764" y="610"/>
      <point x="607" y="596"/>
      <point x="467" y="589" type="curve"/>
      <point x="480" y="558"/>
      <point x="494" y="512"/>
      <point x="497" y="480" type="curve"/>
      <point x="636" y="481"/>
      <point x="801" y="492"/>
    </contour>
  </outline>
</glyph>
<glyph name="ety141_cid22830_H" format="1">
  <advance width="1000"/>
  <outline>
    <contour>
      <point x="274" y="756" type="curve"/>
      <point x="201" y="855" type="line"/>
      <point x="163" y="834"/>
      <point x="97" y="800"/>
      <point x="55" y="787" type="curve"/>
      <point x="108" y="708" type="line"/>
      <point x="154" y="717"/>
      <point x="214" y="735"/>
    </contour>
    <contour>
      <point x="173" y="758" type="line"/>
      <point x="55" y="788" type="line"/>
      <point x="55" y="420" type="line"/>
      <point x="173" y="420" type="line"/>
    </contour>
  </outline>
</glyph>
<glyph name="ety142_cid22831_H" format="1">
  <advance width="1000"/>
  <outline>
    <contour>
      <point x="274" y="751" type="curve"/>
      <point x="201" y="850" type="line"/>
      <point x="163" y="829"/>
      <point x="97" y="795"/>
      <point x="55" y="782" type="curve"/>
      <point x="108" y="703" type="line"/>
      <point x="154" y="712"/>
      <point x="214" y="730"/>
    </contour>
    <contour>
      <point x="173" y="752" type="line"/>
      <point x="55" y="783" type="line"/>
      <point x="55" y="420" type="line"/>
      <point x="173" y="420" type="line"/>
    </contour>
  </outline>
</glyph>
<glyph name="ety143_cid24019_EL" format="1">
  <advance width="1000"/>
  <outline>
    <contour>
      <point x="547" y="765" type="curve"/>
      <point x="520" y="786" type="line"/>
      <point x="481" y="764"/>
      <point x="411" y="738"/>
      <point x="351" y="721" type="curve"/>
      <point x="356" y="714"/>
      <point x="361" y="705"/>
      <point x="363" y="698" type="curve"/>
      <point x="425" y="715"/>
      <point x="497" y="739"/>
    </contour>
    <contour>
      <point x="379" y="711" type="line"/>
      <point x="350" y="720" type="line"/>
      <point x="350" y="397" type="line"/>
      <point x="379" y="397" type="line"/>
    </contour>
  </outline>
</glyph>
<glyph name="ety144_cid24020_EL" format="1">
  <advance width="1000"/>
  <outline>
    <contour>
      <point x="375" y="726" type="line"/>
      <point x="345" y="736" type="line"/>
      <point x="345" y="405" type="line"/>
      <point x="375" y="405" type="line"/>
    </contour>
    <contour>
      <point x="531" y="779" type="curve"/>
      <point x="511" y="801" type="line"/>
      <point x="469" y="781"/>
      <point x="395" y="751"/>
      <point x="344" y="736" type="curve"/>
      <point x="361" y="716" type="line"/>
      <point x="412" y="730"/>
      <point x="482" y="752"/>
    </contour>
  </outline>
</glyph>
<glyph name="ety145_cid24020_H" format="1">
  <advance width="1000"/>
  <outline>
    <contour>
      <point x="476" y="707" type="line"/>
      <point x="344" y="749" type="line"/>
      <point x="344" y="386" type="line"/>
      <point x="476" y="386" type="line"/>
    </contour>
    <contour>
      <point x="580" y="725" type="curve"/>
      <point x="492" y="829" type="line"/>
      <point x="454" y="804"/>
      <point x="388" y="767"/>
      <point x="345" y="750" type="curve"/>
      <point x="406" y="669" type="line"/>
      <point x="454" y="680"/>
      <point x="515" y="701"/>
    </contour>
  </outline>
</glyph>
<glyph name="ety146_cid24021_EL" format="1">
  <advance width="1000"/>
  <outline>
    <contour>
      <point x="384" y="726" type="line"/>
      <point x="355" y="736" type="line"/>
      <point x="355" y="405" type="line"/>
      <point x="384" y="405" type="line"/>
    </contour>
    <contour>
      <point x="541" y="779" type="curve"/>
      <point x="521" y="801" type="line"/>
      <point x="478" y="781"/>
      <point x="405" y="751"/>
      <point x="354" y="736" type="curve"/>
      <point x="371" y="716" type="line"/>
      <point x="422" y="730"/>
      <point x="492" y="752"/>
    </contour>
  </outline>
</glyph>
<glyph name="ety147_cid24021_H" format="1">
  <advance width="1000"/>
  <outline>
    <contour>
      <point x="481" y="717" type="line"/>
      <point x="349" y="759" type="line"/>
      <point x="349" y="396" type="line"/>
      <point x="481" y="396" type="line"/>
    </contour>
    <contour>
      <point x="585" y="735" type="curve"/>
      <point x="497" y="839" type="line"/>
      <point x="459" y="814"/>
      <point x="393" y="777"/>
      <point x="350" y="760" type="curve"/>
      <point x="411" y="679" type="line"/>
      <point x="459" y="690"/>
      <point x="520" y="711"/>
    </contour>
  </outline>
</glyph>
<glyph name="ety149_cid24125_EL" format="1">
  <advance width="1000"/>
  <outline>
    <contour>
      <point x="478" y="549" type="line"/>
      <point x="449" y="561" type="line"/>
      <point x="449" y="166" type="line"/>
      <point x="478" y="166" type="line"/>
    </contour>
    <contour>
      <point x="836" y="577" type="curve"/>
      <point x="815" y="604" type="line"/>
      <point x="732" y="583"/>
      <point x="574" y="568"/>
      <point x="449" y="560" type="curve"/>
      <point x="454" y="551"/>
      <point x="458" y="540"/>
      <point x="460" y="533" type="curve"/>
      <point x="585" y="539"/>
      <point x="743" y="556"/>
    </contour>
  </outline>
</glyph>
<glyph name="ety150_cid24348_H" format="1">
  <advance width="1000"/>
  <outline>
    <contour>
      <point x="494" y="726" type="line"/>
      <point x="362" y="768" type="line"/>
      <point x="362" y="385" type="line"/>
      <point x="494" y="385" type="line"/>
    </contour>
    <contour>
      <point x="658" y="756" type="curve"/>
      <point x="562" y="853" type="line"/>
      <point x="510" y="825"/>
      <point x="423" y="787"/>
      <point x="363" y="769" type="curve"/>
      <point x="436" y="686" type="line"/>
      <point x="499" y="701"/>
      <point x="584" y="727"/>
    </contour>
  </outline>
</glyph>
<glyph name="ety151_cid24445_EL" format="1">
  <advance width="1000"/>
  <outline>
    <contour>
      <point x="589" y="799" type="curve"/>
      <point x="561" y="820" type="line"/>
      <point x="513" y="791"/>
      <point x="421" y="759"/>
      <point x="342" y="736" type="curve"/>
      <point x="347" y="729"/>
      <point x="352" y="719"/>
      <point x="354" y="713" type="curve"/>
      <point x="435" y="735"/>
      <point x="528" y="766"/>
    </contour>
    <contour>
      <point x="373" y="726" type="line"/>
      <point x="342" y="737" type="line"/>
      <point x="342" y="474" type="line"/>
      <point x="373" y="474" type="line"/>
    </contour>
  </outline>
</glyph>
<glyph name="ety152_cid24445_H" format="1">
  <advance width="1000"/>
  <outline>
    <contour>
      <point x="639" y="767" type="curve"/>
      <point x="557" y="858" type="line"/>
      <point x="504" y="831"/>
      <point x="417" y="800"/>
      <point x="340" y="780" type="curve"/>
      <point x="350" y="755"/>
      <point x="364" y="712"/>
      <point x="369" y="687" type="curve"/>
      <point x="454" y="705"/>
      <point x="557" y="734"/>
    </contour>
    <contour>
      <point x="470" y="727" type="line"/>
      <point x="340" y="779" type="line"/>
      <point x="340" y="491" type="line"/>
      <point x="470" y="491" type="line"/>
    </contour>
  </outline>
</glyph>
<glyph name="ety153_cid24650_H" format="1">
  <advance width="1000"/>
  <outline>
    <contour>
      <point x="504" y="541" type="line"/>
      <point x="378" y="581" type="line"/>
      <point x="378" y="299" type="line"/>
      <point x="504" y="299" type="line"/>
    </contour>
    <contour>
      <point x="632" y="577" type="curve"/>
      <point x="554" y="658" type="line"/>
      <point x="509" y="634"/>
      <point x="431" y="599"/>
      <point x="378" y="583" type="curve"/>
      <point x="436" y="516" type="line"/>
      <point x="492" y="529"/>
      <point x="566" y="551"/>
    </contour>
  </outline>
</glyph>
<glyph name="ety154_cid25217_H" format="1">
  <advance width="1000"/>
  <outline>
    <contour>
      <point x="672" y="408" type="curve"/>
      <point x="571" y="505" type="line"/>
      <point x="526" y="472"/>
      <point x="456" y="433"/>
      <point x="391" y="407" type="curve"/>
      <point x="406" y="381"/>
      <point x="425" y="338"/>
      <point x="432" y="311" type="curve"/>
      <point x="507" y="335"/>
      <point x="597" y="369"/>
    </contour>
    <contour>
      <point x="530" y="406" type="line"/>
      <point x="391" y="406" type="line"/>
      <point x="391" y="-89" type="line"/>
      <point x="530" y="-89" type="line"/>
    </contour>
  </outline>
</glyph>
<glyph name="ety155_cid25218_H" format="1">
  <advance width="1000"/>
  <outline>
    <contour>
      <point x="680" y="408" type="curve"/>
      <point x="579" y="505" type="line"/>
      <point x="534" y="472"/>
      <point x="464" y="433"/>
      <point x="400" y="407" type="curve"/>
      <point x="415" y="381"/>
      <point x="434" y="338"/>
      <point x="440" y="311" type="curve"/>
      <point x="515" y="335"/>
      <point x="605" y="369"/>
    </contour>
    <contour>
      <point x="539" y="406" type="line"/>
      <point x="400" y="406" type="line"/>
      <point x="400" y="-89" type="line"/>
      <point x="539" y="-89" type="line"/>
    </contour>
  </outline>
</glyph>
<glyph name="ety161_cid25526_H" format="1">
  <advance width="1000"/>
  <outline>
    <contour>
      <point x="266" y="422" type="curve"/>
      <point x="192" y="524" type="line"/>
      <point x="154" y="491"/>
      <point x="97" y="452"/>
      <point x="46" y="426" type="curve"/>
      <point x="58" y="400"/>
      <point x="72" y="357"/>
      <point x="78" y="330" type="curve"/>
      <point x="136" y="353"/>
      <point x="206" y="385"/>
    </contour>
    <contour>
      <point x="170" y="425" type="line"/>
      <point x="45" y="425" type="line"/>
      <point x="45" y="-93" type="line"/>
      <point x="170" y="-93" type="line"/>
    </contour>
  </outline>
</glyph>
<glyph name="ety164_cid25613_H" format="1">
  <advance width="1000"/>
  <outline>
    <contour>
      <point x="414" y="733" type="line"/>
      <point x="315" y="775" type="line"/>
      <point x="315" y="408" type="line"/>
      <point x="414" y="408" type="line"/>
    </contour>
    <contour>
      <point x="506" y="738" type="curve"/>
      <point x="423" y="834" type="line"/>
      <point x="395" y="816"/>
      <point x="346" y="786"/>
      <point x="314" y="774" type="curve"/>
      <point x="378" y="693" type="line"/>
      <point x="412" y="702"/>
      <point x="458" y="718"/>
    </contour>
  </outline>
</glyph>
<glyph name="ety165_cid25739_H" format="1">
  <advance width="1000"/>
  <outline>
    <contour>
      <point x="340" y="808" type="curve"/>
      <point x="284" y="865" type="line"/>
      <point x="246" y="858"/>
      <point x="181" y="844"/>
      <point x="137" y="840" type="curve"/>
      <point x="182" y="789" type="line"/>
      <point x="228" y="791"/>
      <point x="290" y="795"/>
    </contour>
    <contour>
      <point x="252" y="841" type="line"/>
      <point x="137" y="841" type="line"/>
      <point x="137" y="544" type="line"/>
      <point x="252" y="544" type="line"/>
    </contour>
  </outline>
</glyph>
<glyph name="ety167_cid25809_EL" format="1">
  <advance width="1000"/>
  <outline>
    <contour>
      <point x="631" y="467" type="curve"/>
      <point x="604" y="488" type="line"/>
      <point x="567" y="466"/>
      <point x="496" y="440"/>
      <point x="436" y="423" type="curve"/>
      <point x="440" y="416"/>
      <point x="445" y="406"/>
      <point x="448" y="400" type="curve"/>
      <point x="510" y="417"/>
      <point x="582" y="440"/>
    </contour>
    <contour>
      <point x="465" y="413" type="line"/>
      <point x="435" y="423" type="line"/>
      <point x="435" y="-71" type="line"/>
      <point x="465" y="-71" type="line"/>
    </contour>
  </outline>
</glyph>
<glyph name="ety169_cid26199_H" format="1">
  <advance width="1000"/>
  <outline>
    <contour>
      <point x="631" y="738" type="curve"/>
      <point x="534" y="832" type="line"/>
      <point x="498" y="803"/>
      <point x="440" y="772"/>
      <point x="386" y="751" type="curve"/>
      <point x="400" y="726"/>
      <point x="418" y="683"/>
      <point x="424" y="657" type="curve"/>
      <point x="489" y="675"/>
      <point x="566" y="702"/>
    </contour>
    <contour>
      <point x="509" y="712" type="line"/>
      <point x="385" y="751" type="line"/>
      <point x="385" y="372" type="line"/>
      <point x="509" y="372" type="line"/>
    </contour>
  </outline>
</glyph>
<glyph name="ety172_cid26674_EL" format="1">
  <advance width="1000"/>
  <outline>
    <contour>
      <point x="597" y="448" type="curve"/>
      <point x="569" y="471" type="line"/>
      <point x="525" y="444"/>
      <point x="448" y="409"/>
      <point x="381" y="384" type="curve"/>
      <point x="385" y="376"/>
      <point x="391" y="368"/>
      <point x="393" y="361" type="curve"/>
      <point x="462" y="385"/>
      <point x="540" y="418"/>
    </contour>
    <contour>
      <point x="411" y="384" type="line"/>
      <point x="380" y="384" type="line"/>
      <point x="380" y="-70" type="line"/>
      <point x="411" y="-70" type="line"/>
    </contour>
  </outline>
</glyph>
<glyph name="ety173_cid26674_H" format="1">
  <advance width="1000"/>
  <outline>
    <contour>
      <point x="635" y="413" type="curve"/>
      <point x="536" y="509" type="line"/>
      <point x="496" y="476"/>
      <point x="434" y="437"/>
      <point x="377" y="411" type="curve"/>
      <point x="392" y="386"/>
      <point x="410" y="342"/>
      <point x="417" y="316" type="curve"/>
      <point x="485" y="340"/>
      <point x="566" y="374"/>
    </contour>
    <contour>
      <point x="512" y="411" type="line"/>
      <point x="376" y="411" type="line"/>
      <point x="376" y="-93" type="line"/>
      <point x="512" y="-93" type="line"/>
    </contour>
  </outline>
</glyph>
<glyph name="ety174_cid26699_EL" format="1">
  <advance width="1000"/>
  <outline>
    <contour>
      <point x="492" y="549" type="line"/>
      <point x="463" y="561" type="line"/>
      <point x="463" y="166" type="line"/>
      <point x="492" y="166" type="line"/>
    </contour>
    <contour>
      <point x="829" y="578" type="curve"/>
      <point x="808" y="604" type="line"/>
      <point x="729" y="584"/>
      <point x="580" y="569"/>
      <point x="463" y="560" type="curve"/>
      <point x="468" y="552"/>
      <point x="472" y="541"/>
      <point x="474" y="533" type="curve"/>
      <point x="592" y="539"/>
      <point x="741" y="556"/>
    </contour>
  </outline>
</glyph>
<glyph name="ety175_cid26699_H" format="1">
  <advance width="1000"/>
  <outline>
    <contour>
      <point x="565" y="562" type="line"/>
      <point x="440" y="589" type="line"/>
      <point x="440" y="178" type="line"/>
      <point x="565" y="178" type="line"/>
    </contour>
    <contour>
      <point x="902" y="514" type="curve"/>
      <point x="855" y="633" type="line"/>
      <point x="740" y="611"/>
      <point x="582" y="596"/>
      <point x="441" y="589" type="curve"/>
      <point x="453" y="558"/>
      <point x="467" y="512"/>
      <point x="470" y="480" type="curve"/>
      <point x="609" y="481"/>
      <point x="775" y="492"/>
    </contour>
  </outline>
</glyph>
<glyph name="ety179_cid27523_EL" format="1">
  <advance width="1000"/>
  <outline>
    <contour>
      <point x="358" y="594" type="line"/>
      <point x="329" y="604" type="line"/>
      <point x="329" y="335" type="line"/>
      <point x="358" y="335" type="line"/>
    </contour>
    <contour>
      <point x="548" y="616" type="curve"/>
      <point x="529" y="635" type="line"/>
      <point x="478" y="625"/>
      <point x="389" y="611"/>
      <point x="329" y="605" type="curve"/>
      <point x="345" y="583" type="line"/>
      <point x="407" y="588"/>
      <point x="491" y="596"/>
    </contour>
  </outline>
</glyph>
<glyph name="ety180_cid27523_H" format="1">
  <advance width="1000"/>
  <outline>
    <contour>
      <point x="437" y="577" type="line"/>
      <point x="324" y="605" type="line"/>
      <point x="324" y="315" type="line"/>
      <point x="437" y="315" type="line"/>
    </contour>
    <contour>
      <point x="559" y="561" type="curve"/>
      <point x="494" y="638" type="line"/>
      <point x="449" y="628"/>
      <point x="374" y="609"/>
      <point x="324" y="604" type="curve"/>
      <point x="375" y="536" type="line"/>
      <point x="427" y="538"/>
      <point x="500" y="546"/>
    </contour>
  </outline>
</glyph>
<glyph name="ety181_cid28062_H" format="1">
  <advance width="1000"/>
  <outline>
    <contour>
      <point x="674" y="743" type="curve"/>
      <point x="573" y="842" type="line"/>
      <point x="529" y="807"/>
      <point x="461" y="766"/>
      <point x="398" y="739" type="curve"/>
      <point x="413" y="713"/>
      <point x="433" y="669"/>
      <point x="440" y="641" type="curve"/>
      <point x="513" y="666"/>
      <point x="601" y="701"/>
    </contour>
    <contour>
      <point x="533" y="739" type="line"/>
      <point x="399" y="739" type="line"/>
      <point x="399" y="316" type="line"/>
      <point x="533" y="316" type="line"/>
    </contour>
  </outline>
</glyph>
<glyph name="ety184_cid28125_H" format="1">
  <advance width="1000"/>
  <outline>
    <contour>
      <point x="517" y="715" type="line"/>
      <point x="396" y="753" type="line"/>
      <point x="396" y="358" type="line"/>
      <point x="517" y="358" type="line"/>
    </contour>
    <contour>
      <point x="628" y="733" type="curve"/>
      <point x="543" y="833" type="line"/>
      <point x="505" y="808"/>
      <point x="439" y="771"/>
      <point x="396" y="754" type="curve"/>
      <point x="455" y="676" type="line"/>
      <point x="503" y="688"/>
      <point x="564" y="709"/>
    </contour>
  </outline>
</glyph>
<glyph name="ety186_cid28709_H" format="1">
  <advance width="1000"/>
  <outline>
    <contour>
      <point x="544" y="758" type="line"/>
      <point x="418" y="791" type="line"/>
      <point x="418" y="481" type="line"/>
      <point x="544" y="481" type="line"/>
    </contour>
    <contour>
      <point x="689" y="756" type="curve"/>
      <point x="605" y="845" type="line"/>
      <point x="558" y="827"/>
      <point x="478" y="800"/>
      <point x="424" y="790" type="curve"/>
      <point x="482" y="719" type="line"/>
      <point x="541" y="725"/>
      <point x="616" y="737"/>
    </contour>
  </outline>
</glyph>
<glyph name="ety188_cid29504_H" format="1">
  <advance width="1000"/>
  <outline>
    <contour>
      <point x="509" y="245" type="curve"/>
      <point x="418" y="333" type="line"/>
      <point x="344" y="314"/>
      <point x="228" y="293"/>
      <point x="124" y="279" type="curve"/>
      <point x="136" y="256"/>
      <point x="151" y="216"/>
      <point x="156" y="192" type="curve"/>
      <point x="267" y="202"/>
      <point x="401" y="221"/>
    </contour>
    <contour>
      <point x="259" y="279" type="line"/>
      <point x="120" y="279" type="line"/>
      <point x="120" y="-95" type="line"/>
      <point x="259" y="-95" type="line"/>
    </contour>
  </outline>
</glyph>
<glyph name="ety190_cid29600_EL" format="1">
  <advance width="1000"/>
  <outline>
    <contour>
      <point x="178" y="516" type="line"/>
      <point x="148" y="525" type="line"/>
      <point x="148" y="321" type="line"/>
      <point x="178" y="321" type="line"/>
    </contour>
    <contour>
      <point x="463" y="541" type="curve"/>
      <point x="443" y="567" type="line"/>
      <point x="376" y="548"/>
      <point x="248" y="532"/>
      <point x="148" y="524" type="curve"/>
      <point x="152" y="517"/>
      <point x="157" y="506"/>
      <point x="159" y="498" type="curve"/>
      <point x="260" y="504"/>
      <point x="387" y="521"/>
    </contour>
  </outline>
</glyph>
<glyph name="ety192_cid31395_EL" format="1">
  <advance width="1000"/>
  <outline>
    <contour>
      <point x="653" y="448" type="curve"/>
      <point x="625" y="470" type="line"/>
      <point x="582" y="441"/>
      <point x="501" y="407"/>
      <point x="431" y="383" type="curve"/>
      <point x="435" y="376"/>
      <point x="441" y="367"/>
      <point x="443" y="360" type="curve"/>
      <point x="515" y="383"/>
      <point x="597" y="416"/>
    </contour>
    <contour>
      <point x="460" y="373" type="line"/>
      <point x="430" y="382" type="line"/>
      <point x="430" y="-72" type="line"/>
      <point x="460" y="-72" type="line"/>
    </contour>
  </outline>
</glyph>
<glyph name="ety193_cid31395_H" format="1">
  <advance width="1000"/>
  <outline>
    <contour>
      <point x="683" y="420" type="curve"/>
      <point x="593" y="518" type="line"/>
      <point x="551" y="484"/>
      <point x="486" y="446"/>
      <point x="427" y="420" type="curve"/>
      <point x="441" y="394"/>
      <point x="459" y="353"/>
      <point x="466" y="327" type="curve"/>
      <point x="533" y="350"/>
      <point x="615" y="382"/>
    </contour>
    <contour>
      <point x="556" y="384" type="line"/>
      <point x="424" y="419" type="line"/>
      <point x="424" y="-94" type="line"/>
      <point x="556" y="-94" type="line"/>
    </contour>
  </outline>
</glyph>
<glyph name="ety194_cid31831_EL" format="1">
  <advance width="1000"/>
  <outline>
    <contour>
      <point x="510" y="549" type="line"/>
      <point x="480" y="561" type="line"/>
      <point x="480" y="166" type="line"/>
      <point x="510" y="166" type="line"/>
    </contour>
    <contour>
      <point x="848" y="578" type="curve"/>
      <point x="826" y="604" type="line"/>
      <point x="748" y="584"/>
      <point x="599" y="569"/>
      <point x="481" y="560" type="curve"/>
      <point x="486" y="552"/>
      <point x="490" y="541"/>
      <point x="492" y="533" type="curve"/>
      <point x="611" y="539"/>
      <point x="760" y="556"/>
    </contour>
  </outline>
</glyph>
<glyph name="ety195_cid31831_H" format="1">
  <advance width="1000"/>
  <outline>
    <contour>
      <point x="581" y="562" type="line"/>
      <point x="448" y="589" type="line"/>
      <point x="448" y="178" type="line"/>
      <point x="581" y="178" type="line"/>
    </contour>
    <contour>
      <point x="924" y="514" type="curve"/>
      <point x="875" y="633" type="line"/>
      <point x="756" y="611"/>
      <point x="593" y="596"/>
      <point x="447" y="589" type="curve"/>
      <point x="460" y="558"/>
      <point x="474" y="512"/>
      <point x="477" y="480" type="curve"/>
      <point x="621" y="481"/>
      <point x="793" y="492"/>
    </contour>
  </outline>
</glyph>
<glyph name="ety198_cid33060_H" format="1">
  <advance width="1000"/>
  <outline>
    <contour>
      <point x="630" y="738" type="curve"/>
      <point x="533" y="832" type="line"/>
      <point x="497" y="803"/>
      <point x="439" y="772"/>
      <point x="385" y="751" type="curve"/>
      <point x="399" y="726"/>
      <point x="417" y="683"/>
      <point x="423" y="657" type="curve"/>
      <point x="488" y="675"/>
      <point x="565" y="702"/>
    </contour>
    <contour>
      <point x="508" y="712" type="line"/>
      <point x="384" y="751" type="line"/>
      <point x="384" y="372" type="line"/>
      <point x="508" y="372" type="line"/>
    </contour>
  </outline>
</glyph>
<glyph name="ety199_cid33092_EL" format="1">
  <advance width="1000"/>
  <outline>
    <contour>
      <point x="549" y="549" type="line"/>
      <point x="520" y="561" type="line"/>
      <point x="520" y="166" type="line"/>
      <point x="549" y="166" type="line"/>
    </contour>
    <contour>
      <point x="858" y="577" type="curve"/>
      <point x="836" y="603" type="line"/>
      <point x="765" y="583"/>
      <point x="628" y="569"/>
      <point x="521" y="560" type="curve"/>
      <point x="525" y="552"/>
      <point x="529" y="541"/>
      <point x="531" y="533" type="curve"/>
      <point x="640" y="539"/>
      <point x="776" y="556"/>
    </contour>
  </outline>
</glyph>
<glyph name="ety200_cid33092_H" format="1">
  <advance width="1000"/>
  <outline>
    <contour>
      <point x="591" y="562" type="line"/>
      <point x="458" y="589" type="line"/>
      <point x="458" y="178" type="line"/>
      <point x="591" y="178" type="line"/>
    </contour>
    <contour>
      <point x="911" y="514" type="curve"/>
      <point x="860" y="632" type="line"/>
      <point x="749" y="611"/>
      <point x="595" y="596"/>
      <point x="457" y="589" type="curve"/>
      <point x="470" y="558"/>
      <point x="485" y="512"/>
      <point x="488" y="480" type="curve"/>
      <point x="624" y="481"/>
      <point x="786" y="492"/>
    </contour>
  </outline>
</glyph>
<glyph name="ety201_cid33336_EL" format="1">
  <advance width="1000"/>
  <outline>
    <contour>
      <point x="393" y="749" type="curve"/>
      <point x="368" y="774" type="line"/>
      <point x="312" y="751"/>
      <point x="213" y="723"/>
      <point x="131" y="703" type="curve"/>
      <point x="135" y="695"/>
      <point x="140" y="684"/>
      <point x="143" y="677" type="curve"/>
      <point x="227" y="696"/>
      <point x="326" y="722"/>
    </contour>
    <contour>
      <point x="161" y="693" type="line"/>
      <point x="132" y="703" type="line"/>
      <point x="132" y="279" type="line"/>
      <point x="161" y="279" type="line"/>
    </contour>
  </outline>
</glyph>
<glyph name="ety202_cid33336_H" format="1">
  <advance width="1000"/>
  <outline>
    <contour>
      <point x="438" y="726" type="curve"/>
      <point x="338" y="836" type="line"/>
      <point x="278" y="803"/>
      <point x="187" y="765"/>
      <point x="105" y="741" type="curve"/>
      <point x="120" y="712"/>
      <point x="140" y="664"/>
      <point x="146" y="635" type="curve"/>
      <point x="238" y="656"/>
      <point x="347" y="687"/>
    </contour>
    <contour>
      <point x="248" y="695" type="line"/>
      <point x="104" y="740" type="line"/>
      <point x="104" y="284" type="line"/>
      <point x="248" y="284" type="line"/>
    </contour>
  </outline>
</glyph>
<glyph name="ety206_cid33959_EL" format="1">
  <advance width="1000"/>
  <outline>
    <contour>
      <point x="438" y="591" type="curve"/>
      <point x="409" y="613" type="line"/>
      <point x="345" y="577"/>
      <point x="221" y="540"/>
      <point x="115" y="514" type="curve"/>
      <point x="120" y="507"/>
      <point x="125" y="497"/>
      <point x="127" y="490" type="curve"/>
      <point x="235" y="516"/>
      <point x="360" y="552"/>
    </contour>
    <contour>
      <point x="145" y="514" type="line"/>
      <point x="116" y="514" type="line"/>
      <point x="116" y="85" type="line"/>
      <point x="145" y="85" type="line"/>
    </contour>
  </outline>
</glyph>
<glyph name="ety207_cid33959_H" format="1">
  <advance width="1000"/>
  <outline>
    <contour>
      <point x="486" y="511" type="curve"/>
      <point x="378" y="630" type="line"/>
      <point x="302" y="596"/>
      <point x="190" y="559"/>
      <point x="86" y="537" type="curve"/>
      <point x="102" y="506"/>
      <point x="123" y="453"/>
      <point x="130" y="421" type="curve"/>
      <point x="243" y="440"/>
      <point x="375" y="471"/>
    </contour>
    <contour>
      <point x="230" y="536" type="line"/>
      <point x="86" y="536" type="line"/>
      <point x="86" y="68" type="line"/>
      <point x="230" y="68" type="line"/>
    </contour>
  </outline>
</glyph>
<glyph name="ety209_cid34472_EL" format="1">
  <advance width="1000"/>
  <outline>
    <contour>
      <point x="460" y="355" type="curve"/>
      <point x="430" y="377" type="line"/>
      <point x="369" y="354"/>
      <point x="260" y="326"/>
      <point x="165" y="306" type="curve"/>
      <point x="170" y="298"/>
      <point x="175" y="288"/>
      <point x="177" y="282" type="curve"/>
      <point x="273" y="301"/>
      <point x="382" y="328"/>
    </contour>
    <contour>
      <point x="195" y="305" type="line"/>
      <point x="165" y="305" type="line"/>
      <point x="165" y="-70" type="line"/>
      <point x="195" y="-70" type="line"/>
    </contour>
  </outline>
</glyph>
<glyph name="ety210_cid34488_H" format="1">
  <advance width="1000"/>
  <outline>
    <contour>
      <point x="278" y="567" type="line"/>
      <point x="144" y="599" type="line"/>
      <point x="144" y="296" type="line"/>
      <point x="278" y="296" type="line"/>
    </contour>
    <contour>
      <point x="494" y="546" type="curve"/>
      <point x="431" y="651" type="line"/>
      <point x="351" y="632"/>
      <point x="228" y="604"/>
      <point x="144" y="598" type="curve"/>
      <point x="201" y="491" type="line"/>
      <point x="285" y="498"/>
      <point x="408" y="518"/>
    </contour>
  </outline>
</glyph>
<glyph name="ety212_cid34551_H" format="1">
  <advance width="1000"/>
  <outline>
    <contour>
      <point x="430" y="526" type="curve"/>
      <point x="337" y="621" type="line"/>
      <point x="280" y="598"/>
      <point x="192" y="573"/>
      <point x="113" y="556" type="curve"/>
      <point x="127" y="531"/>
      <point x="143" y="488"/>
      <point x="149" y="462" type="curve"/>
      <point x="237" y="475"/>
      <point x="343" y="497"/>
    </contour>
    <contour>
      <point x="250" y="521" type="line"/>
      <point x="113" y="555" type="line"/>
      <point x="113" y="203" type="line"/>
      <point x="250" y="203" type="line"/>
    </contour>
  </outline>
</glyph>
<glyph name="ety215_cid34683_EL" format="1">
  <advance width="1000"/>
  <outline>
    <contour>
      <point x="168" y="550" type="line"/>
      <point x="138" y="560" type="line"/>
      <point x="138" y="-69" type="line"/>
      <point x="168" y="-69" type="line"/>
    </contour>
    <contour>
      <point x="436" y="606" type="curve"/>
      <point x="407" y="628" type="line"/>
      <point x="346" y="605"/>
      <point x="234" y="578"/>
      <point x="139" y="560" type="curve"/>
      <point x="143" y="553"/>
      <point x="148" y="543"/>
      <point x="150" y="536" type="curve"/>
      <point x="248" y="553"/>
      <point x="360" y="578"/>
    </contour>
  </outline>
</glyph>
<glyph name="ety216_cid34683_H" format="1">
  <advance width="1000"/>
  <outline>
    <contour>
      <point x="258" y="536" type="line"/>
      <point x="118" y="580" type="line"/>
      <point x="118" y="-95" type="line"/>
      <point x="258" y="-95" type="line"/>
    </contour>
    <contour>
      <point x="468" y="550" type="curve"/>
      <point x="367" y="647" type="line"/>
      <point x="305" y="622"/>
      <point x="207" y="597"/>
      <point x="118" y="581" type="curve"/>
      <point x="132" y="555"/>
      <point x="150" y="510"/>
      <point x="155" y="482" type="curve"/>
      <point x="254" y="495"/>
      <point x="373" y="518"/>
    </contour>
  </outline>
</glyph>
<glyph name="ety217_cid34877_H" format="1">
  <advance width="1000"/>
  <outline>
    <contour>
      <point x="263" y="567" type="line"/>
      <point x="124" y="603" type="line"/>
      <point x="124" y="314" type="line"/>
      <point x="263" y="314" type="line"/>
    </contour>
    <contour>
      <point x="409" y="549" type="curve"/>
      <point x="347" y="651" type="line"/>
      <point x="286" y="634"/>
      <point x="186" y="609"/>
      <point x="124" y="604" type="curve"/>
      <point x="171" y="515" type="line"/>
      <point x="238" y="520"/>
      <point x="333" y="533"/>
    </contour>
  </outline>
</glyph>
<glyph name="ety219_cid34946_EL" format="1">
  <advance width="1000"/>
  <outline>
    <contour>
      <point x="460" y="361" type="curve"/>
      <point x="430" y="383" type="line"/>
      <point x="369" y="360"/>
      <point x="260" y="331"/>
      <point x="165" y="312" type="curve"/>
      <point x="170" y="304"/>
      <point x="175" y="294"/>
      <point x="177" y="288" type="curve"/>
      <point x="273" y="307"/>
      <point x="382" y="334"/>
    </contour>
    <contour>
      <point x="196" y="311" type="line"/>
      <point x="165" y="311" type="line"/>
      <point x="165" y="-73" type="line"/>
      <point x="196" y="-73" type="line"/>
    </contour>
  </outline>
</glyph>
<glyph name="ety221_cid35292_H" format="1">
  <advance width="1000"/>
  <outline>
    <contour>
      <point x="495" y="577" type="curve"/>
      <point x="414" y="663" type="line"/>
      <point x="348" y="638"/>
      <point x="240" y="615"/>
      <point x="145" y="601" type="curve"/>
      <point x="158" y="577"/>
      <point x="172" y="538"/>
      <point x="177" y="514" type="curve"/>
      <point x="280" y="525"/>
      <point x="403" y="546"/>
    </contour>
    <contour>
      <point x="271" y="579" type="line"/>
      <point x="143" y="601" type="line"/>
      <point x="143" y="346" type="line"/>
      <point x="271" y="346" type="line"/>
    </contour>
  </outline>
</glyph>
<glyph name="ety222_cid35478_H" format="1">
  <advance width="1000"/>
  <outline>
    <contour>
      <point x="558" y="449" type="line"/>
      <point x="445" y="449" type="line"/>
      <point x="445" y="278" type="line"/>
      <point x="558" y="278" type="line"/>
    </contour>
    <contour>
      <point x="640" y="538" type="curve"/>
      <point x="544" y="572" type="line"/>
      <point x="521" y="535"/>
      <point x="479" y="482"/>
      <point x="446" y="449" type="curve"/>
      <point x="529" y="417" type="line"/>
      <point x="563" y="448"/>
      <point x="603" y="492"/>
    </contour>
  </outline>
</glyph>
<glyph name="ety223_cid35554_EL" format="1">
  <advance width="1000"/>
  <outline>
    <contour>
      <point x="463" y="549" type="curve"/>
      <point x="439" y="573" type="line"/>
      <point x="383" y="551"/>
      <point x="284" y="524"/>
      <point x="203" y="506" type="curve"/>
      <point x="207" y="498"/>
      <point x="212" y="488"/>
      <point x="214" y="481" type="curve"/>
      <point x="297" y="499"/>
      <point x="396" y="524"/>
    </contour>
    <contour>
      <point x="231" y="497" type="line"/>
      <point x="203" y="507" type="line"/>
      <point x="203" y="306" type="line"/>
      <point x="231" y="306" type="line"/>
    </contour>
  </outline>
</glyph>
<glyph name="ety225_cid36193_EL" format="1">
  <advance width="1000"/>
  <outline>
    <contour>
      <point x="654" y="445" type="curve"/>
      <point x="625" y="468" type="line"/>
      <point x="587" y="441"/>
      <point x="518" y="407"/>
      <point x="459" y="381" type="curve"/>
      <point x="463" y="375"/>
      <point x="469" y="365"/>
      <point x="471" y="359" type="curve"/>
      <point x="531" y="383"/>
      <point x="602" y="416"/>
    </contour>
    <contour>
      <point x="487" y="382" type="line"/>
      <point x="457" y="382" type="line"/>
      <point x="457" y="-67" type="line"/>
      <point x="487" y="-67" type="line"/>
    </contour>
  </outline>
</glyph>
<glyph name="ety228_cid36357_EL" format="1">
  <advance width="1000"/>
  <outline>
    <contour>
      <point x="631" y="765" type="curve"/>
      <point x="604" y="786" type="line"/>
      <point x="566" y="764"/>
      <point x="495" y="738"/>
      <point x="435" y="721" type="curve"/>
      <point x="440" y="714"/>
      <point x="445" y="705"/>
      <point x="447" y="698" type="curve"/>
      <point x="509" y="715"/>
      <point x="581" y="739"/>
    </contour>
    <contour>
      <point x="465" y="711" type="line"/>
      <point x="435" y="720" type="line"/>
      <point x="435" y="397" type="line"/>
      <point x="465" y="397" type="line"/>
    </contour>
  </outline>
</glyph>
<glyph name="ety229_cid36357_H" format="1">
  <advance width="1000"/>
  <outline>
    <contour>
      <point x="656" y="738" type="curve"/>
      <point x="559" y="832" type="line"/>
      <point x="527" y="804"/>
      <point x="476" y="773"/>
      <point x="428" y="752" type="curve"/>
      <point x="442" y="726"/>
      <point x="460" y="684"/>
      <point x="466" y="658" type="curve"/>
      <point x="525" y="676"/>
      <point x="596" y="703"/>
    </contour>
    <contour>
      <point x="544" y="714" type="line"/>
      <point x="427" y="751" type="line"/>
      <point x="427" y="372" type="line"/>
      <point x="544" y="372" type="line"/>
    </contour>
  </outline>
</glyph>
<glyph name="ety230_cid36990_H" format="1">
  <advance width="1000"/>
  <outline>
    <contour>
      <point x="408" y="600" type="curve"/>
      <point x="340" y="690" type="line"/>
      <point x="277" y="668"/>
      <point x="180" y="649"/>
      <point x="95" y="637" type="curve"/>
      <point x="106" y="613"/>
      <point x="120" y="574"/>
      <point x="124" y="550" type="curve"/>
      <point x="214" y="558"/>
      <point x="324" y="574"/>
    </contour>
    <contour>
      <point x="224" y="636" type="line"/>
      <point x="94" y="636" type="line"/>
      <point x="94" y="237" type="line"/>
      <point x="224" y="237" type="line"/>
    </contour>
  </outline>
</glyph>
<glyph name="ety231_cid36991_EL" format="1">
  <advance width="1000"/>
  <outline>
    <contour>
      <point x="406" y="627" type="curve"/>
      <point x="381" y="651" type="line"/>
      <point x="324" y="631"/>
      <point x="216" y="612"/>
      <point x="127" y="599" type="curve"/>
      <point x="132" y="592"/>
      <point x="135" y="581"/>
      <point x="138" y="575" type="curve"/>
      <point x="228" y="585"/>
      <point x="336" y="605"/>
    </contour>
    <contour>
      <point x="157" y="599" type="line"/>
      <point x="128" y="599" type="line"/>
      <point x="128" y="281" type="line"/>
      <point x="157" y="281" type="line"/>
    </contour>
  </outline>
</glyph>
<glyph name="ety236_cid37939_EL" format="1">
  <advance width="1000"/>
  <outline>
    <contour>
      <point x="667" y="446" type="curve"/>
      <point x="638" y="469" type="line"/>
      <point x="600" y="442"/>
      <point x="530" y="408"/>
      <point x="472" y="382" type="curve"/>
      <point x="476" y="376"/>
      <point x="481" y="366"/>
      <point x="483" y="360" type="curve"/>
      <point x="544" y="384"/>
      <point x="615" y="417"/>
    </contour>
    <contour>
      <point x="501" y="382" type="line"/>
      <point x="471" y="382" type="line"/>
      <point x="471" y="-67" type="line"/>
      <point x="501" y="-67" type="line"/>
    </contour>
  </outline>
</glyph>
<glyph name="ety237_cid37939_H" format="1">
  <advance width="1000"/>
  <outline>
    <contour>
      <point x="695" y="424" type="curve"/>
      <point x="603" y="521" type="line"/>
      <point x="562" y="488"/>
      <point x="498" y="449"/>
      <point x="440" y="423" type="curve"/>
      <point x="454" y="397"/>
      <point x="471" y="354"/>
      <point x="477" y="327" type="curve"/>
      <point x="545" y="351"/>
      <point x="627" y="385"/>
    </contour>
    <contour>
      <point x="567" y="422" type="line"/>
      <point x="440" y="422" type="line"/>
      <point x="440" y="-96" type="line"/>
      <point x="567" y="-96" type="line"/>
    </contour>
  </outline>
</glyph>
<glyph name="ety238_cid38115_H" format="1">
  <advance width="1000"/>
  <outline>
    <contour>
      <point x="531" y="739" type="line"/>
      <point x="420" y="774" type="line"/>
      <point x="420" y="367" type="line"/>
      <point x="531" y="367" type="line"/>
    </contour>
    <contour>
      <point x="624" y="723" type="curve"/>
      <point x="556" y="817" type="line"/>
      <point x="520" y="804"/>
      <point x="458" y="781"/>
      <point x="419" y="774" type="curve"/>
      <point x="473" y="691" type="line"/>
      <point x="515" y="695"/>
      <point x="574" y="707"/>
    </contour>
  </outline>
</glyph>
<glyph name="ety239_cid38116_H" format="1">
  <advance width="1000"/>
  <outline>
    <contour>
      <point x="513" y="715" type="line"/>
      <point x="392" y="753" type="line"/>
      <point x="392" y="358" type="line"/>
      <point x="513" y="358" type="line"/>
    </contour>
    <contour>
      <point x="624" y="733" type="curve"/>
      <point x="539" y="833" type="line"/>
      <point x="501" y="808"/>
      <point x="435" y="771"/>
      <point x="392" y="754" type="curve"/>
      <point x="451" y="676" type="line"/>
      <point x="499" y="688"/>
      <point x="560" y="709"/>
    </contour>
  </outline>
</glyph>
<glyph name="ety243_cid38320_H" format="1">
  <advance width="1000"/>
  <outline>
    <contour>
      <point x="444" y="726" type="line"/>
      <point x="345" y="775" type="line"/>
      <point x="345" y="408" type="line"/>
      <point x="444" y="408" type="line"/>
    </contour>
    <contour>
      <point x="516" y="737" type="curve"/>
      <point x="447" y="834" type="line"/>
      <point x="421" y="816"/>
      <point x="375" y="786"/>
      <point x="345" y="774" type="curve"/>
      <point x="398" y="693" type="line"/>
      <point x="430" y="701"/>
      <point x="473" y="718"/>
    </contour>
  </outline>
</glyph>
<glyph name="ety246_cid38742_EL" format="1">
  <advance width="1000"/>
  <outline>
    <contour>
      <point x="675" y="783" type="curve"/>
      <point x="653" y="809" type="line"/>
      <point x="608" y="788"/>
      <point x="526" y="768"/>
      <point x="460" y="755" type="curve"/>
      <point x="465" y="746"/>
      <point x="470" y="736"/>
      <point x="473" y="729" type="curve"/>
      <point x="539" y="740"/>
      <point x="623" y="761"/>
    </contour>
    <contour>
      <point x="489" y="744" type="line"/>
      <point x="460" y="754" type="line"/>
      <point x="460" y="327" type="line"/>
      <point x="489" y="327" type="line"/>
    </contour>
  </outline>
</glyph>
<glyph name="ety247_cid39406_EL" format="1">
  <advance width="1000"/>
  <outline>
    <contour>
      <point x="639" y="448" type="curve"/>
      <point x="612" y="471" type="line"/>
      <point x="574" y="444"/>
      <point x="507" y="410"/>
      <point x="449" y="385" type="curve"/>
      <point x="453" y="377"/>
      <point x="459" y="368"/>
      <point x="461" y="362" type="curve"/>
      <point x="521" y="386"/>
      <point x="589" y="419"/>
    </contour>
    <contour>
      <point x="478" y="384" type="line"/>
      <point x="448" y="384" type="line"/>
      <point x="448" y="-70" type="line"/>
      <point x="478" y="-70" type="line"/>
    </contour>
  </outline>
</glyph>
<glyph name="ety249_cid39439_H" format="1">
  <advance width="1000"/>
  <outline>
    <contour>
      <point x="687" y="261" type="curve"/>
      <point x="624" y="353" type="line"/>
      <point x="575" y="330"/>
      <point x="497" y="297"/>
      <point x="444" y="285" type="curve"/>
      <point x="498" y="197" type="line"/>
      <point x="552" y="209"/>
      <point x="629" y="233"/>
    </contour>
    <contour>
      <point x="558" y="257" type="line"/>
      <point x="442" y="285" type="line"/>
      <point x="442" y="-98" type="line"/>
      <point x="558" y="-98" type="line"/>
    </contour>
  </outline>
</glyph>
<glyph name="ety250_cid39588_H" format="1">
  <advance width="1000"/>
  <outline>
    <contour>
      <point x="513" y="524" type="line"/>
      <point x="398" y="536" type="line"/>
      <point x="398" y="335" type="line"/>
      <point x="513" y="335" type="line"/>
    </contour>
    <contour>
      <point x="670" y="521" type="curve"/>
      <point x="607" y="590" type="line"/>
      <point x="557" y="567"/>
      <point x="472" y="548"/>
      <point x="398" y="538" type="curve"/>
      <point x="409" y="518"/>
      <point x="421" y="487"/>
      <point x="424" y="467" type="curve"/>
      <point x="504" y="475"/>
      <point x="601" y="492"/>
    </contour>
  </outline>
</glyph>
<glyph name="ety252_cid39783_H" format="1">
  <advance width="1000"/>
  <outline>
    <contour>
      <point x="728" y="424" type="curve"/>
      <point x="637" y="521" type="line"/>
      <point x="596" y="488"/>
      <point x="533" y="449"/>
      <point x="474" y="423" type="curve"/>
      <point x="488" y="397"/>
      <point x="505" y="354"/>
      <point x="511" y="327" type="curve"/>
      <point x="579" y="351"/>
      <point x="661" y="385"/>
    </contour>
    <contour>
      <point x="601" y="422" type="line"/>
      <point x="474" y="422" type="line"/>
      <point x="474" y="-96" type="line"/>
      <point x="601" y="-96" type="line"/>
    </contour>
  </outline>
</glyph>
<glyph name="ety254_cid39846_H" format="1">
  <advance width="1000"/>
  <outline>
    <contour>
      <point x="697" y="421" type="curve"/>
      <point x="610" y="521" type="line"/>
      <point x="571" y="488"/>
      <point x="511" y="449"/>
      <point x="457" y="423" type="curve"/>
      <point x="470" y="397"/>
      <point x="487" y="354"/>
      <point x="493" y="328" type="curve"/>
      <point x="556" y="351"/>
      <point x="632" y="383"/>
    </contour>
    <contour>
      <point x="583" y="422" type="line"/>
      <point x="456" y="422" type="line"/>
      <point x="456" y="-96" type="line"/>
      <point x="583" y="-96" type="line"/>
    </contour>
  </outline>
</glyph>
<glyph name="ety255_cid40459_EL" format="1">
  <advance width="1000"/>
  <outline>
    <contour>
      <point x="404" y="738" type="line"/>
      <point x="375" y="749" type="line"/>
      <point x="375" y="476" type="line"/>
      <point x="404" y="476" type="line"/>
    </contour>
    <contour>
      <point x="585" y="759" type="curve"/>
      <point x="568" y="781" type="line"/>
      <point x="519" y="772"/>
      <point x="432" y="756"/>
      <point x="375" y="750" type="curve"/>
      <point x="388" y="728" type="line"/>
      <point x="447" y="733"/>
      <point x="529" y="741"/>
    </contour>
  </outline>
</glyph>
<glyph name="ety256_cid40760_EL" format="1">
  <advance width="1000"/>
  <outline>
    <contour>
      <point x="303" y="819" type="curve"/>
      <point x="275" y="841" type="line"/>
      <point x="239" y="811"/>
      <point x="174" y="776"/>
      <point x="118" y="751" type="curve"/>
      <point x="123" y="744"/>
      <point x="128" y="734"/>
      <point x="131" y="728" type="curve"/>
      <point x="188" y="753"/>
      <point x="256" y="786"/>
    </contour>
    <contour>
      <point x="146" y="751" type="line"/>
      <point x="117" y="751" type="line"/>
      <point x="117" y="340" type="line"/>
      <point x="146" y="340" type="line"/>
    </contour>
  </outline>
</glyph>
<glyph name="ety257_cid40798_EL" format="1">
  <advance width="1000"/>
  <outline>
    <contour>
      <point x="275" y="762" type="curve"/>
      <point x="248" y="783" type="line"/>
      <point x="211" y="761"/>
      <point x="142" y="735"/>
      <point x="84" y="719" type="curve"/>
      <point x="88" y="711"/>
      <point x="93" y="702"/>
      <point x="96" y="695" type="curve"/>
      <point x="156" y="712"/>
      <point x="227" y="736"/>
    </contour>
    <contour>
      <point x="113" y="708" type="line"/>
      <point x="84" y="718" type="line"/>
      <point x="84" y="398" type="line"/>
      <point x="113" y="398" type="line"/>
    </contour>
  </outline>
</glyph>
<glyph name="ety258_cid40799_H" format="1">
  <advance width="1000"/>
  <outline>
    <contour>
      <point x="282" y="738" type="curve"/>
      <point x="185" y="832" type="line"/>
      <point x="151" y="803"/>
      <point x="96" y="772"/>
      <point x="45" y="752" type="curve"/>
      <point x="60" y="726"/>
      <point x="78" y="684"/>
      <point x="84" y="658" type="curve"/>
      <point x="146" y="676"/>
      <point x="220" y="703"/>
    </contour>
    <contour>
      <point x="169" y="712" type="line"/>
      <point x="45" y="751" type="line"/>
      <point x="45" y="409" type="line"/>
      <point x="169" y="409" type="line"/>
    </contour>
  </outline>
</glyph>
<glyph name="ety259_cid40800_H" format="1">
  <advance width="1000"/>
  <outline>
    <contour>
      <point x="169" y="716" type="line"/>
      <point x="45" y="755" type="line"/>
      <point x="45" y="396" type="line"/>
      <point x="169" y="396" type="line"/>
    </contour>
    <contour>
      <point x="282" y="737" type="curve"/>
      <point x="185" y="832" type="line"/>
      <point x="148" y="808"/>
      <point x="86" y="773"/>
      <point x="44" y="757" type="curve"/>
      <point x="123" y="673" type="line"/>
      <point x="168" y="687"/>
      <point x="228" y="711"/>
    </contour>
  </outline>
</glyph>
<glyph name="ety261_cid41981_EL" format="1">
  <advance width="1000"/>
  <outline>
    <contour>
      <point x="617" y="809" type="curve"/>
      <point x="589" y="829" type="line"/>
      <point x="553" y="801"/>
      <point x="483" y="768"/>
      <point x="425" y="743" type="curve"/>
      <point x="428" y="736"/>
      <point x="434" y="727"/>
      <point x="436" y="720" type="curve"/>
      <point x="497" y="744"/>
      <point x="569" y="776"/>
    </contour>
    <contour>
      <point x="453" y="733" type="line"/>
      <point x="423" y="743" type="line"/>
      <point x="423" y="-68" type="line"/>
      <point x="453" y="-68" type="line"/>
    </contour>
  </outline>
</glyph>
<glyph name="ety262_cid41981_H" format="1">
  <advance width="1000"/>
  <outline>
    <contour>
      <point x="638" y="766" type="curve"/>
      <point x="528" y="860" type="line"/>
      <point x="499" y="818"/>
      <point x="452" y="767"/>
      <point x="406" y="733" type="curve"/>
      <point x="423" y="707"/>
      <point x="444" y="663"/>
      <point x="453" y="636" type="curve"/>
      <point x="511" y="670"/>
      <point x="580" y="715"/>
    </contour>
    <contour>
      <point x="531" y="689" type="line"/>
      <point x="406" y="732" type="line"/>
      <point x="406" y="-92" type="line"/>
      <point x="531" y="-92" type="line"/>
    </contour>
  </outline>
</glyph>
<glyph name="ety263_cid41997_H" format="1">
  <advance width="1000"/>
  <outline>
    <contour>
      <point x="655" y="392" type="curve"/>
      <point x="572" y="496" type="line"/>
      <point x="537" y="476"/>
      <point x="485" y="454"/>
      <point x="441" y="438" type="curve"/>
      <point x="453" y="412"/>
      <point x="469" y="370"/>
      <point x="474" y="344" type="curve"/>
      <point x="526" y="354"/>
      <point x="593" y="371"/>
    </contour>
    <contour>
      <point x="562" y="399" type="line"/>
      <point x="440" y="438" type="line"/>
      <point x="440" y="-95" type="line"/>
      <point x="562" y="-95" type="line"/>
    </contour>
  </outline>
</glyph>
<glyph name="ety264_cid42146_H" format="1">
  <advance width="1000"/>
  <outline>
    <contour>
      <point x="650" y="720" type="curve"/>
      <point x="583" y="816" type="line"/>
      <point x="549" y="799"/>
      <point x="498" y="783"/>
      <point x="453" y="773" type="curve"/>
      <point x="465" y="748"/>
      <point x="478" y="709"/>
      <point x="482" y="685" type="curve"/>
      <point x="532" y="689"/>
      <point x="595" y="701"/>
    </contour>
    <contour>
      <point x="560" y="740" type="line"/>
      <point x="453" y="774" type="line"/>
      <point x="453" y="367" type="line"/>
      <point x="560" y="367" type="line"/>
    </contour>
  </outline>
</glyph>
<glyph name="ety265_cid42561_H" format="1">
  <advance width="1000"/>
  <outline>
    <contour>
      <point x="502" y="524" type="line"/>
      <point x="387" y="536" type="line"/>
      <point x="387" y="335" type="line"/>
      <point x="502" y="335" type="line"/>
    </contour>
    <contour>
      <point x="659" y="521" type="curve"/>
      <point x="596" y="590" type="line"/>
      <point x="546" y="567"/>
      <point x="461" y="548"/>
      <point x="387" y="538" type="curve"/>
      <point x="398" y="518"/>
      <point x="410" y="487"/>
      <point x="413" y="467" type="curve"/>
      <point x="493" y="475"/>
      <point x="590" y="492"/>
    </contour>
  </outline>
</glyph>
<glyph name="ety266_cid42562_H" format="1">
  <advance width="1000"/>
  <outline>
    <contour>
      <point x="502" y="524" type="line"/>
      <point x="387" y="536" type="line"/>
      <point x="387" y="335" type="line"/>
      <point x="502" y="335" type="line"/>
    </contour>
    <contour>
      <point x="665" y="522" type="curve"/>
      <point x="604" y="590" type="line"/>
      <point x="552" y="567"/>
      <point x="463" y="548"/>
      <point x="387" y="538" type="curve"/>
      <point x="397" y="518"/>
      <point x="409" y="488"/>
      <point x="412" y="469" type="curve"/>
      <point x="494" y="476"/>
      <point x="594" y="494"/>
    </contour>
  </outline>
</glyph>
<glyph name="ety269_cid42761_H" format="1">
  <advance width="1000"/>
  <outline>
    <contour>
      <point x="668" y="350" type="curve"/>
      <point x="585" y="458" type="line"/>
      <point x="544" y="444"/>
      <point x="485" y="430"/>
      <point x="433" y="421" type="curve"/>
      <point x="446" y="393"/>
      <point x="461" y="348"/>
      <point x="466" y="321" type="curve"/>
      <point x="525" y="325"/>
      <point x="599" y="334"/>
    </contour>
    <contour>
      <point x="560" y="381" type="line"/>
      <point x="434" y="421" type="line"/>
      <point x="434" y="-96" type="line"/>
      <point x="560" y="-96" type="line"/>
    </contour>
  </outline>
</glyph>
<glyph name="ety271_cid42790_H" format="1">
  <advance width="1000"/>
  <outline>
    <contour>
      <point x="582" y="562" type="line"/>
      <point x="449" y="589" type="line"/>
      <point x="449" y="178" type="line"/>
      <point x="582" y="178" type="line"/>
    </contour>
    <contour>
      <point x="912" y="513" type="curve"/>
      <point x="861" y="632" type="line"/>
      <point x="747" y="610"/>
      <point x="590" y="596"/>
      <point x="450" y="589" type="curve"/>
      <point x="463" y="558"/>
      <point x="477" y="512"/>
      <point x="480" y="480" type="curve"/>
      <point x="619" y="481"/>
      <point x="784" y="492"/>
    </contour>
  </outline>
</glyph>
<glyph name="ety273_cid43047_EL" format="1">
  <advance width="1000"/>
  <outline>
    <contour>
      <point x="309" y="345" type="line"/>
      <point x="279" y="357" type="line"/>
      <point x="279" y="13" type="line"/>
      <point x="309" y="13" type="line"/>
    </contour>
    <contour>
      <point x="468" y="391" type="curve"/>
      <point x="440" y="414" type="line"/>
      <point x="402" y="396"/>
      <point x="335" y="374"/>
      <point x="279" y="358" type="curve"/>
      <point x="282" y="350"/>
      <point x="287" y="341"/>
      <point x="290" y="334" type="curve"/>
      <point x="348" y="349"/>
      <point x="417" y="370"/>
    </contour>
  </outline>
</glyph>
<glyph name="ety274_cid43047_H" format="1">
  <advance width="1000"/>
  <outline>
    <contour>
      <point x="385" y="332" type="line"/>
      <point x="263" y="371" type="line"/>
      <point x="263" y="37" type="line"/>
      <point x="385" y="37" type="line"/>
    </contour>
    <contour>
      <point x="493" y="359" type="curve"/>
      <point x="416" y="447" type="line"/>
      <point x="376" y="422"/>
      <point x="316" y="393"/>
      <point x="263" y="372" type="curve"/>
      <point x="275" y="349"/>
      <point x="289" y="312"/>
      <point x="295" y="289" type="curve"/>
      <point x="355" y="307"/>
      <point x="429" y="331"/>
    </contour>
  </outline>
</glyph>
<glyph name="ety275_cid43196_H" format="1">
  <advance width="1000"/>
  <outline>
    <contour>
      <point x="664" y="408" type="curve"/>
      <point x="563" y="505" type="line"/>
      <point x="518" y="472"/>
      <point x="448" y="433"/>
      <point x="384" y="407" type="curve"/>
      <point x="399" y="381"/>
      <point x="418" y="338"/>
      <point x="424" y="311" type="curve"/>
      <point x="499" y="335"/>
      <point x="589" y="369"/>
    </contour>
    <contour>
      <point x="523" y="406" type="line"/>
      <point x="384" y="406" type="line"/>
      <point x="384" y="-89" type="line"/>
      <point x="523" y="-89" type="line"/>
    </contour>
  </outline>
</glyph>
<glyph name="ety276_cid43511_EL" format="1">
  <advance width="1000"/>
  <outline>
    <contour>
      <point x="194" y="384" type="line"/>
      <point x="165" y="394" type="line"/>
      <point x="165" y="150" type="line"/>
      <point x="194" y="150" type="line"/>
    </contour>
    <contour>
      <point x="449" y="401" type="curve"/>
      <point x="427" y="422" type="line"/>
      <point x="362" y="412"/>
      <point x="246" y="399"/>
      <point x="166" y="394" type="curve"/>
      <point x="184" y="373" type="line"/>
      <point x="267" y="376"/>
      <point x="375" y="382"/>
    </contour>
  </outline>
</glyph>
<glyph name="ety277_cid43511_H" format="1">
  <advance width="1000"/>
  <outline>
    <contour>
      <point x="260" y="393" type="line"/>
      <point x="126" y="421" type="line"/>
      <point x="126" y="151" type="line"/>
      <point x="260" y="151" type="line"/>
    </contour>
    <contour>
      <point x="475" y="354" type="curve"/>
      <point x="410" y="446" type="line"/>
      <point x="333" y="436"/>
      <point x="210" y="421"/>
      <point x="128" y="421" type="curve"/>
      <point x="183" y="332" type="line"/>
      <point x="267" y="331"/>
      <point x="387" y="338"/>
    </contour>
  </outline>
</glyph>
<glyph name="ety280_cid43599_EL" format="1">
  <advance width="1000"/>
  <outline>
    <contour>
      <point x="517" y="331" type="line"/>
      <point x="487" y="331" type="line"/>
      <point x="487" y="199" type="line"/>
      <point x="517" y="199" type="line"/>
    </contour>
    <contour>
      <point x="611" y="405" type="curve"/>
      <point x="583" y="421" type="line"/>
      <point x="561" y="396"/>
      <point x="519" y="356"/>
      <point x="487" y="332" type="curve"/>
      <point x="509" y="319" type="line"/>
      <point x="540" y="341"/>
      <point x="580" y="374"/>
    </contour>
  </outline>
</glyph>
<glyph name="ety281_cid43599_H" format="1">
  <advance width="1000"/>
  <outline>
    <contour>
      <point x="548" y="280" type="line"/>
      <point x="432" y="280" type="line"/>
      <point x="432" y="185" type="line"/>
      <point x="548" y="185" type="line"/>
    </contour>
    <contour>
      <point x="620" y="352" type="curve"/>
      <point x="524" y="378" type="line"/>
      <point x="502" y="349"/>
      <point x="462" y="307"/>
      <point x="431" y="280" type="curve"/>
      <point x="525" y="255" type="line"/>
      <point x="555" y="280"/>
      <point x="588" y="313"/>
    </contour>
  </outline>
</glyph>
<glyph name="ety282_cid43895_EL" format="1">
  <advance width="1000"/>
  <outline>
    <contour>
      <point x="695" y="443" type="curve"/>
      <point x="668" y="466" type="line"/>
      <point x="627" y="440"/>
      <point x="557" y="408"/>
      <point x="496" y="383" type="curve"/>
      <point x="501" y="376"/>
      <point x="506" y="367"/>
      <point x="508" y="361" type="curve"/>
      <point x="571" y="383"/>
      <point x="642" y="415"/>
    </contour>
    <contour>
      <point x="525" y="383" type="line"/>
      <point x="495" y="383" type="line"/>
      <point x="495" y="-71" type="line"/>
      <point x="525" y="-71" type="line"/>
    </contour>
  </outline>
</glyph>
<glyph name="ety286_cid43929_H" format="1">
  <advance width="1000"/>
  <outline>
    <contour>
      <point x="664" y="661" type="curve"/>
      <point x="553" y="694" type="line"/>
      <point x="524" y="649"/>
      <point x="473" y="589"/>
      <point x="432" y="550" type="curve"/>
      <point x="529" y="518" type="line"/>
      <point x="571" y="553"/>
      <point x="620" y="606"/>
    </contour>
    <contour>
      <point x="558" y="549" type="line"/>
      <point x="431" y="549" type="line"/>
      <point x="431" y="391" type="line"/>
      <point x="558" y="391" type="line"/>
    </contour>
  </outline>
</glyph>
<glyph name="ety287_cid44242_H" format="1">
  <advance width="1000"/>
  <outline>
    <contour>
      <point x="636" y="756" type="line"/>
      <point x="543" y="780" type="line"/>
      <point x="543" y="523" type="line"/>
      <point x="636" y="523" type="line"/>
    </contour>
    <contour>
      <point x="710" y="771" type="curve"/>
      <point x="655" y="843" type="line"/>
      <point x="626" y="824"/>
      <point x="574" y="793"/>
      <point x="542" y="780" type="curve"/>
      <point x="586" y="716" type="line"/>
      <point x="620" y="728"/>
      <point x="669" y="747"/>
    </contour>
  </outline>
</glyph>
<glyph name="ety289_cid44468_H" format="1">
  <advance width="1000"/>
  <outline>
    <contour>
      <point x="703" y="424" type="curve"/>
      <point x="611" y="521" type="line"/>
      <point x="570" y="488"/>
      <point x="506" y="449"/>
      <point x="448" y="423" type="curve"/>
      <point x="462" y="397"/>
      <point x="479" y="354"/>
      <point x="485" y="327" type="curve"/>
      <point x="553" y="351"/>
      <point x="635" y="385"/>
    </contour>
    <contour>
      <point x="575" y="422" type="line"/>
      <point x="448" y="422" type="line"/>
      <point x="448" y="-96" type="line"/>
      <point x="575" y="-96" type="line"/>
    </contour>
  </outline>
</glyph>
<glyph name="ety292_cid44547_H" format="1">
  <advance width="1000"/>
  <outline>
    <contour>
      <point x="550" y="739" type="line"/>
      <point x="444" y="774" type="line"/>
      <point x="444" y="367" type="line"/>
      <point x="550" y="367" type="line"/>
    </contour>
    <contour>
      <point x="639" y="723" type="curve"/>
      <point x="574" y="817" type="line"/>
      <point x="539" y="804"/>
      <point x="480" y="781"/>
      <point x="443" y="774" type="curve"/>
      <point x="495" y="691" type="line"/>
      <point x="534" y="695"/>
      <point x="591" y="707"/>
    </contour>
  </outline>
</glyph>
<glyph name="ety294_cid44551_H" format="1">
  <advance width="1000"/>
  <outline>
    <contour>
      <point x="689" y="421" type="curve"/>
      <point x="600" y="521" type="line"/>
      <point x="560" y="488"/>
      <point x="499" y="449"/>
      <point x="444" y="423" type="curve"/>
      <point x="457" y="397"/>
      <point x="475" y="354"/>
      <point x="481" y="328" type="curve"/>
      <point x="545" y="351"/>
      <point x="623" y="383"/>
    </contour>
    <contour>
      <point x="572" y="422" type="line"/>
      <point x="442" y="422" type="line"/>
      <point x="442" y="-96" type="line"/>
      <point x="572" y="-96" type="line"/>
    </contour>
  </outline>
</glyph>
<glyph name="ety295_cid44552_EL" format="1">
  <advance width="1000"/>
  <outline>
    <contour>
      <point x="673" y="447" type="curve"/>
      <point x="646" y="470" type="line"/>
      <point x="604" y="443"/>
      <point x="527" y="408"/>
      <point x="463" y="383" type="curve"/>
      <point x="467" y="376"/>
      <point x="472" y="367"/>
      <point x="475" y="360" type="curve"/>
      <point x="541" y="384"/>
      <point x="618" y="417"/>
    </contour>
    <contour>
      <point x="491" y="383" type="line"/>
      <point x="462" y="383" type="line"/>
      <point x="462" y="-71" type="line"/>
      <point x="491" y="-71" type="line"/>
    </contour>
  </outline>
</glyph>
<glyph name="ety296_cid44552_H" format="1">
  <advance width="1000"/>
  <outline>
    <contour>
      <point x="680" y="420" type="curve"/>
      <point x="591" y="520" type="line"/>
      <point x="551" y="487"/>
      <point x="490" y="448"/>
      <point x="435" y="422" type="curve"/>
      <point x="448" y="396"/>
      <point x="466" y="353"/>
      <point x="472" y="327" type="curve"/>
      <point x="536" y="350"/>
      <point x="614" y="382"/>
    </contour>
    <contour>
      <point x="564" y="422" type="line"/>
      <point x="434" y="422" type="line"/>
      <point x="434" y="-96" type="line"/>
      <point x="564" y="-96" type="line"/>
    </contour>
  </outline>
</glyph>
<glyph name="ety299_cid45227_EL" format="1">
  <advance width="1000"/>
  <outline>
    <contour>
      <point x="580" y="549" type="line"/>
      <point x="551" y="561" type="line"/>
      <point x="551" y="166" type="line"/>
      <point x="580" y="166" type="line"/>
    </contour>
    <contour>
      <point x="860" y="576" type="curve"/>
      <point x="838" y="602" type="line"/>
      <point x="772" y="583"/>
      <point x="649" y="569"/>
      <point x="551" y="560" type="curve"/>
      <point x="556" y="552"/>
      <point x="561" y="541"/>
      <point x="563" y="534" type="curve"/>
      <point x="662" y="540"/>
      <point x="785" y="556"/>
    </contour>
  </outline>
</glyph>
<glyph name="ety300_cid45227_H" format="1">
  <advance width="1000"/>
  <outline>
    <contour>
      <point x="617" y="556" type="line"/>
      <point x="489" y="583" type="line"/>
      <point x="489" y="172" type="line"/>
      <point x="617" y="172" type="line"/>
    </contour>
    <contour>
      <point x="904" y="507" type="curve"/>
      <point x="849" y="625" type="line"/>
      <point x="749" y="605"/>
      <point x="611" y="591"/>
      <point x="488" y="584" type="curve"/>
      <point x="501" y="553"/>
      <point x="516" y="507"/>
      <point x="519" y="475" type="curve"/>
      <point x="642" y="476"/>
      <point x="789" y="487"/>
    </contour>
  </outline>
</glyph>
<glyph name="ety301_cid45350_EL" format="1">
  <advance width="1000"/>
  <outline>
    <contour>
      <point x="260" y="324" type="line"/>
      <point x="231" y="329" type="line"/>
      <point x="231" y="101" type="line"/>
      <point x="260" y="101" type="line"/>
    </contour>
    <contour>
      <point x="765" y="357" type="curve"/>
      <point x="736" y="381" type="line"/>
      <point x="623" y="357"/>
      <point x="407" y="338"/>
      <point x="231" y="328" type="curve"/>
      <point x="234" y="322"/>
      <point x="238" y="310"/>
      <point x="239" y="303" type="curve"/>
      <point x="420" y="311"/>
      <point x="634" y="330"/>
    </contour>
  </outline>
</glyph>
<glyph name="ety302_cid45350_H" format="1">
  <advance width="1000"/>
  <outline>
    <contour>
      <point x="311" y="325" type="line"/>
      <point x="167" y="355" type="line"/>
      <point x="167" y="81" type="line"/>
      <point x="311" y="81" type="line"/>
    </contour>
    <contour>
      <point x="841" y="311" type="curve"/>
      <point x="759" y="395" type="line"/>
      <point x="616" y="372"/>
      <point x="376" y="358"/>
      <point x="167" y="354" type="curve"/>
      <point x="177" y="332"/>
      <point x="189" y="291"/>
      <point x="192" y="266" type="curve"/>
      <point x="406" y="268"/>
      <point x="658" y="281"/>
    </contour>
  </outline>
</glyph>
<glyph name="ety303_cid45392_H" format="1">
  <advance width="1000"/>
  <outline>
    <contour>
      <point x="810" y="248" type="curve"/>
      <point x="740" y="317" type="line"/>
      <point x="618" y="300"/>
      <point x="406" y="292"/>
      <point x="224" y="292" type="curve"/>
      <point x="233" y="273"/>
      <point x="243" y="240"/>
      <point x="246" y="219" type="curve"/>
      <point x="433" y="217"/>
      <point x="654" y="225"/>
    </contour>
    <contour>
      <point x="364" y="272" type="line"/>
      <point x="224" y="293" type="line"/>
      <point x="224" y="78" type="line"/>
      <point x="364" y="78" type="line"/>
    </contour>
  </outline>
</glyph>
<glyph name="ety304_cid45437_EL" format="1">
  <advance width="1000"/>
  <outline>
    <contour>
      <point x="307" y="425" type="line"/>
      <point x="278" y="434" type="line"/>
      <point x="278" y="186" type="line"/>
      <point x="307" y="186" type="line"/>
    </contour>
    <contour>
      <point x="488" y="438" type="curve"/>
      <point x="471" y="464" type="line"/>
      <point x="424" y="452"/>
      <point x="342" y="440"/>
      <point x="278" y="433" type="curve"/>
      <point x="281" y="425"/>
      <point x="286" y="416"/>
      <point x="288" y="409" type="curve"/>
      <point x="353" y="413"/>
      <point x="434" y="425"/>
    </contour>
  </outline>
</glyph>
<glyph name="ety305_cid45437_H" format="1">
  <advance width="1000"/>
  <outline>
    <contour>
      <point x="377" y="426" type="line"/>
      <point x="270" y="460" type="line"/>
      <point x="270" y="215" type="line"/>
      <point x="377" y="215" type="line"/>
    </contour>
    <contour>
      <point x="488" y="404" type="curve"/>
      <point x="451" y="490" type="line"/>
      <point x="401" y="478"/>
      <point x="329" y="467"/>
      <point x="270" y="459" type="curve"/>
      <point x="279" y="437"/>
      <point x="289" y="405"/>
      <point x="292" y="384" type="curve"/>
      <point x="350" y="385"/>
      <point x="426" y="394"/>
    </contour>
  </outline>
</glyph>
<glyph name="ety309_cid46351_H" format="1">
  <advance width="1000"/>
  <outline>
    <contour>
      <point x="266" y="434" type="curve"/>
      <point x="192" y="536" type="line"/>
      <point x="154" y="503"/>
      <point x="97" y="464"/>
      <point x="46" y="438" type="curve"/>
      <point x="58" y="412"/>
      <point x="72" y="369"/>
      <point x="78" y="342" type="curve"/>
      <point x="136" y="365"/>
      <point x="206" y="397"/>
    </contour>
    <contour>
      <point x="171" y="437" type="line"/>
      <point x="45" y="437" type="line"/>
      <point x="45" y="-94" type="line"/>
      <point x="171" y="-94" type="line"/>
    </contour>
  </outline>
</glyph>
<glyph name="ety312_cid46738_EL" format="1">
  <advance width="1000"/>
  <outline>
    <contour>
      <point x="276" y="448" type="curve"/>
      <point x="247" y="471" type="line"/>
      <point x="209" y="444"/>
      <point x="139" y="410"/>
      <point x="81" y="384" type="curve"/>
      <point x="84" y="377"/>
      <point x="90" y="368"/>
      <point x="92" y="362" type="curve"/>
      <point x="153" y="386"/>
      <point x="224" y="419"/>
    </contour>
    <contour>
      <point x="110" y="384" type="line"/>
      <point x="80" y="384" type="line"/>
      <point x="80" y="-65" type="line"/>
      <point x="110" y="-65" type="line"/>
    </contour>
  </outline>
</glyph>
<glyph name="ety316_cid46845_EL" format="1">
  <advance width="1000"/>
  <outline>
    <contour>
      <point x="516" y="322" type="curve"/>
      <point x="487" y="344" type="line"/>
      <point x="428" y="330"/>
      <point x="321" y="317"/>
      <point x="230" y="309" type="curve"/>
      <point x="233" y="302"/>
      <point x="237" y="291"/>
      <point x="239" y="285" type="curve"/>
      <point x="333" y="291"/>
      <point x="441" y="304"/>
    </contour>
    <contour>
      <point x="258" y="299" type="line"/>
      <point x="229" y="309" type="line"/>
      <point x="229" y="116" type="line"/>
      <point x="258" y="116" type="line"/>
    </contour>
  </outline>
</glyph>
<glyph name="ety317_cid46845_H" format="1">
  <advance width="1000"/>
  <outline>
    <contour>
      <point x="550" y="285" type="curve"/>
      <point x="487" y="356" type="line"/>
      <point x="428" y="339"/>
      <point x="327" y="329"/>
      <point x="241" y="326" type="curve"/>
      <point x="252" y="305"/>
      <point x="263" y="273"/>
      <point x="266" y="253" type="curve"/>
      <point x="358" y="253"/>
      <point x="471" y="263"/>
    </contour>
    <contour>
      <point x="373" y="293" type="line"/>
      <point x="242" y="327" type="line"/>
      <point x="242" y="94" type="line"/>
      <point x="373" y="94" type="line"/>
    </contour>
  </outline>
</glyph>
<glyph name="ety318_cid47191_H" format="1">
  <advance width="1000"/>
  <outline>
    <contour>
      <point x="179" y="759" type="line"/>
      <point x="59" y="784" type="line"/>
      <point x="59" y="466" type="line"/>
      <point x="179" y="466" type="line"/>
    </contour>
    <contour>
      <point x="275" y="765" type="curve"/>
      <point x="212" y="851" type="line"/>
      <point x="172" y="830"/>
      <point x="103" y="796"/>
      <point x="59" y="783" type="curve"/>
      <point x="108" y="708" type="line"/>
      <point x="155" y="719"/>
      <point x="221" y="741"/>
    </contour>
  </outline>
</glyph>
<glyph name="ety321_cid47194_H" format="1">
  <advance width="1000"/>
  <outline>
    <contour>
      <point x="195" y="759" type="line"/>
      <point x="82" y="784" type="line"/>
      <point x="82" y="466" type="line"/>
      <point x="195" y="466" type="line"/>
    </contour>
    <contour>
      <point x="294" y="765" type="curve"/>
      <point x="233" y="851" type="line"/>
      <point x="194" y="830"/>
      <point x="127" y="796"/>
      <point x="84" y="783" type="curve"/>
      <point x="132" y="708" type="line"/>
      <point x="178" y="719"/>
      <point x="242" y="741"/>
    </contour>
  </outline>
</glyph>
<glyph name="ety325_cid47198_H" format="1">
  <advance width="1000"/>
  <outline>
    <contour>
      <point x="184" y="759" type="line"/>
      <point x="68" y="784" type="line"/>
      <point x="68" y="466" type="line"/>
      <point x="184" y="466" type="line"/>
    </contour>
    <contour>
      <point x="284" y="765" type="curve"/>
      <point x="221" y="851" type="line"/>
      <point x="181" y="830"/>
      <point x="112" y="796"/>
      <point x="68" y="783" type="curve"/>
      <point x="117" y="708" type="line"/>
      <point x="164" y="719"/>
      <point x="230" y="741"/>
    </contour>
  </outline>
</glyph>
<glyph name="ety327_cid47201_H" format="1">
  <advance width="1000"/>
  <outline>
    <contour>
      <point x="182" y="761" type="line"/>
      <point x="62" y="786" type="line"/>
      <point x="62" y="468" type="line"/>
      <point x="182" y="468" type="line"/>
    </contour>
    <contour>
      <point x="286" y="767" type="curve"/>
      <point x="224" y="853" type="line"/>
      <point x="182" y="831"/>
      <point x="109" y="798"/>
      <point x="62" y="785" type="curve"/>
      <point x="111" y="710" type="line"/>
      <point x="161" y="721"/>
      <point x="230" y="743"/>
    </contour>
  </outline>
</glyph>
<glyph name="ety329_cid47203_H" format="1">
  <advance width="1000"/>
  <outline>
    <contour>
      <point x="171" y="760" type="line"/>
      <point x="57" y="784" type="line"/>
      <point x="57" y="466" type="line"/>
      <point x="171" y="466" type="line"/>
    </contour>
    <contour>
      <point x="265" y="766" type="curve"/>
      <point x="202" y="852" type="line"/>
      <point x="164" y="831"/>
      <point x="99" y="798"/>
      <point x="58" y="784" type="curve"/>
      <point x="107" y="709" type="line"/>
      <point x="152" y="721"/>
      <point x="214" y="742"/>
    </contour>
  </outline>
</glyph>
<glyph name="ety330_cid47204_EL" format="1">
  <advance width="1000"/>
  <outline>
    <contour>
      <point x="121" y="748" type="line"/>
      <point x="91" y="758" type="line"/>
      <point x="91" y="466" type="line"/>
      <point x="121" y="466" type="line"/>
    </contour>
    <contour>
      <point x="258" y="810" type="curve"/>
      <point x="235" y="830" type="line"/>
      <point x="199" y="809"/>
      <point x="136" y="776"/>
      <point x="92" y="758" type="curve"/>
      <point x="111" y="737" type="line"/>
      <point x="156" y="755"/>
      <point x="216" y="779"/>
    </contour>
  </outline>
</glyph>
<glyph name="ety333_cid47206_H" format="1">
  <advance width="1000"/>
  <outline>
    <contour>
      <point x="177" y="754" type="line"/>
      <point x="57" y="779" type="line"/>
      <point x="57" y="473" type="line"/>
      <point x="177" y="473" type="line"/>
    </contour>
    <contour>
      <point x="279" y="767" type="curve"/>
      <point x="204" y="855" type="line"/>
      <point x="166" y="831"/>
      <point x="101" y="796"/>
      <point x="58" y="780" type="curve"/>
      <point x="118" y="703" type="line"/>
      <point x="163" y="717"/>
      <point x="226" y="741"/>
    </contour>
  </outline>
</glyph>
<glyph name="ety334_cid47207_H" format="1">
  <advance width="1000"/>
  <outline>
    <contour>
      <point x="174" y="759" type="line"/>
      <point x="58" y="784" type="line"/>
      <point x="58" y="466" type="line"/>
      <point x="174" y="466" type="line"/>
    </contour>
    <contour>
      <point x="272" y="765" type="curve"/>
      <point x="210" y="851" type="line"/>
      <point x="170" y="830"/>
      <point x="102" y="796"/>
      <point x="58" y="783" type="curve"/>
      <point x="107" y="708" type="line"/>
      <point x="154" y="719"/>
      <point x="219" y="741"/>
    </contour>
  </outline>
</glyph>
<glyph name="ety335_cid47208_H" format="1">
  <advance width="1000"/>
  <outline>
    <contour>
      <point x="177" y="754" type="line"/>
      <point x="57" y="779" type="line"/>
      <point x="57" y="473" type="line"/>
      <point x="177" y="473" type="line"/>
    </contour>
    <contour>
      <point x="276" y="770" type="curve"/>
      <point x="203" y="855" type="line"/>
      <point x="165" y="831"/>
      <point x="100" y="796"/>
      <point x="57" y="780" type="curve"/>
      <point x="115" y="706" type="line"/>
      <point x="160" y="720"/>
      <point x="223" y="744"/>
    </contour>
  </outline>
</glyph>
<glyph name="ety336_cid47210_EL" format="1">
  <advance width="1000"/>
  <outline>
    <contour>
      <point x="118" y="740" type="line"/>
      <point x="88" y="750" type="line"/>
      <point x="88" y="470" type="line"/>
      <point x="118" y="470" type="line"/>
    </contour>
    <contour>
      <point x="262" y="796" type="curve"/>
      <point x="240" y="817" type="line"/>
      <point x="202" y="797"/>
      <point x="135" y="768"/>
      <point x="88" y="752" type="curve"/>
      <point x="107" y="731" type="line"/>
      <point x="154" y="746"/>
      <point x="218" y="768"/>
    </contour>
  </outline>
</glyph>
<glyph name="ety337_cid47210_H" format="1">
  <advance width="1000"/>
  <outline>
    <contour>
      <point x="191" y="760" type="line"/>
      <point x="76" y="784" type="line"/>
      <point x="76" y="466" type="line"/>
      <point x="191" y="466" type="line"/>
    </contour>
    <contour>
      <point x="293" y="765" type="curve"/>
      <point x="230" y="851" type="line"/>
      <point x="190" y="830"/>
      <point x="121" y="796"/>
      <point x="77" y="783" type="curve"/>
      <point x="126" y="708" type="line"/>
      <point x="173" y="719"/>
      <point x="239" y="741"/>
    </contour>
  </outline>
</glyph>
<glyph name="ety345_cid47222_EL" format="1">
  <advance width="1000"/>
  <outline>
    <contour>
      <point x="102" y="742" type="line"/>
      <point x="73" y="752" type="line"/>
      <point x="73" y="472" type="line"/>
      <point x="102" y="472" type="line"/>
    </contour>
    <contour>
      <point x="239" y="809" type="curve"/>
      <point x="217" y="829" type="line"/>
      <point x="181" y="806"/>
      <point x="117" y="771"/>
      <point x="73" y="753" type="curve"/>
      <point x="92" y="732" type="line"/>
      <point x="136" y="751"/>
      <point x="196" y="777"/>
    </contour>
  </outline>
</glyph>
<glyph name="ety346_cid47222_H" format="1">
  <advance width="1000"/>
  <outline>
    <contour>
      <point x="170" y="753" type="line"/>
      <point x="68" y="775" type="line"/>
      <point x="68" y="457" type="line"/>
      <point x="170" y="457" type="line"/>
    </contour>
    <contour>
      <point x="269" y="757" type="curve"/>
      <point x="205" y="842" type="line"/>
      <point x="170" y="821"/>
      <point x="108" y="788"/>
      <point x="69" y="774" type="curve"/>
      <point x="119" y="699" type="line"/>
      <point x="161" y="711"/>
      <point x="220" y="732"/>
    </contour>
  </outline>
</glyph>
<glyph name="ety347_cid47223_EL" format="1">
  <advance width="1000"/>
  <outline>
    <contour>
      <point x="103" y="741" type="line"/>
      <point x="75" y="752" type="line"/>
      <point x="75" y="473" type="line"/>
      <point x="103" y="473" type="line"/>
    </contour>
    <contour>
      <point x="231" y="796" type="curve"/>
      <point x="211" y="817" type="line"/>
      <point x="177" y="797"/>
      <point x="116" y="768"/>
      <point x="75" y="751" type="curve"/>
      <point x="92" y="730" type="line"/>
      <point x="134" y="746"/>
      <point x="191" y="768"/>
    </contour>
  </outline>
</glyph>
<glyph name="ety348_cid47223_H" format="1">
  <advance width="1000"/>
  <outline>
    <contour>
      <point x="169" y="754" type="line"/>
      <point x="66" y="777" type="line"/>
      <point x="66" y="459" type="line"/>
      <point x="169" y="459" type="line"/>
    </contour>
    <contour>
      <point x="264" y="758" type="curve"/>
      <point x="204" y="844" type="line"/>
      <point x="168" y="823"/>
      <point x="106" y="790"/>
      <point x="66" y="776" type="curve"/>
      <point x="114" y="701" type="line"/>
      <point x="156" y="713"/>
      <point x="215" y="734"/>
    </contour>
  </outline>
</glyph>
<glyph name="ety355_cid47239_EL" format="1">
  <advance width="1000"/>
  <outline>
    <contour>
      <point x="116" y="742" type="line"/>
      <point x="86" y="752" type="line"/>
      <point x="86" y="472" type="line"/>
      <point x="116" y="472" type="line"/>
    </contour>
    <contour>
      <point x="252" y="796" type="curve"/>
      <point x="230" y="817" type="line"/>
      <point x="193" y="797"/>
      <point x="130" y="768"/>
      <point x="85" y="751" type="curve"/>
      <point x="105" y="730" type="line"/>
      <point x="149" y="746"/>
      <point x="209" y="768"/>
    </contour>
  </outline>
</glyph>
<glyph name="ety359_cid47243_H" format="1">
  <advance width="1000"/>
  <outline>
    <contour>
      <point x="166" y="760" type="line"/>
      <point x="54" y="784" type="line"/>
      <point x="54" y="466" type="line"/>
      <point x="166" y="466" type="line"/>
    </contour>
    <contour>
      <point x="267" y="765" type="curve"/>
      <point x="205" y="851" type="line"/>
      <point x="165" y="830"/>
      <point x="97" y="796"/>
      <point x="53" y="783" type="curve"/>
      <point x="102" y="708" type="line"/>
      <point x="149" y="719"/>
      <point x="214" y="741"/>
    </contour>
  </outline>
</glyph>
<glyph name="ety362_cid47249_EL" format="1">
  <advance width="1000"/>
  <outline>
    <contour>
      <point x="105" y="742" type="line"/>
      <point x="76" y="752" type="line"/>
      <point x="76" y="472" type="line"/>
      <point x="105" y="472" type="line"/>
    </contour>
    <contour>
      <point x="241" y="796" type="curve"/>
      <point x="219" y="817" type="line"/>
      <point x="182" y="797"/>
      <point x="119" y="768"/>
      <point x="75" y="751" type="curve"/>
      <point x="94" y="730" type="line"/>
      <point x="138" y="746"/>
      <point x="198" y="768"/>
    </contour>
  </outline>
</glyph>
<glyph name="ety363_cid47249_H" format="1">
  <advance width="1000"/>
  <outline>
    <contour>
      <point x="159" y="754" type="line"/>
      <point x="50" y="777" type="line"/>
      <point x="50" y="459" type="line"/>
      <point x="159" y="459" type="line"/>
    </contour>
    <contour>
      <point x="257" y="758" type="curve"/>
      <point x="194" y="844" type="line"/>
      <point x="156" y="823"/>
      <point x="91" y="790"/>
      <point x="50" y="776" type="curve"/>
      <point x="99" y="701" type="line"/>
      <point x="144" y="713"/>
      <point x="206" y="734"/>
    </contour>
  </outline>
</glyph>
<glyph name="ety366_cid47284_H" format="1">
  <advance width="1000"/>
  <outline>
    <contour>
      <point x="653" y="646" type="curve"/>
      <point x="548" y="684" type="line"/>
      <point x="522" y="636"/>
      <point x="474" y="571"/>
      <point x="436" y="531" type="curve"/>
      <point x="529" y="495" type="line"/>
      <point x="567" y="533"/>
      <point x="613" y="589"/>
    </contour>
    <contour>
      <point x="563" y="531" type="line"/>
      <point x="435" y="531" type="line"/>
      <point x="435" y="351" type="line"/>
      <point x="563" y="351" type="line"/>
    </contour>
  </outline>
</glyph>
<glyph name="ety368_cid47290_H" format="1">
  <advance width="1000"/>
  <outline>
    <contour>
      <point x="632" y="658" type="curve"/>
      <point x="523" y="693" type="line"/>
      <point x="504" y="653"/>
      <point x="468" y="597"/>
      <point x="440" y="561" type="curve"/>
      <point x="540" y="528" type="line"/>
      <point x="568" y="561"/>
      <point x="601" y="608"/>
    </contour>
    <contour>
      <point x="565" y="561" type="line"/>
      <point x="439" y="561" type="line"/>
      <point x="439" y="397" type="line"/>
      <point x="565" y="397" type="line"/>
    </contour>
  </outline>
</glyph>
<glyph name="ety369_cid47293_EL" format="1">
  <advance width="1000"/>
  <outline>
    <contour>
      <point x="602" y="689" type="curve"/>
      <point x="576" y="703" type="line"/>
      <point x="554" y="675"/>
      <point x="512" y="634"/>
      <point x="480" y="610" type="curve"/>
      <point x="502" y="597" type="line"/>
      <point x="533" y="621"/>
      <point x="572" y="655"/>
    </contour>
    <contour>
      <point x="511" y="609" type="line"/>
      <point x="480" y="609" type="line"/>
      <point x="480" y="450" type="line"/>
      <point x="511" y="450" type="line"/>
    </contour>
  </outline>
</glyph>
<glyph name="ety373_cid47297_EL" format="1">
  <advance width="1000"/>
  <outline>
    <contour>
      <point x="611" y="695" type="curve"/>
      <point x="585" y="709" type="line"/>
      <point x="563" y="681"/>
      <point x="521" y="640"/>
      <point x="489" y="616" type="curve"/>
      <point x="511" y="603" type="line"/>
      <point x="542" y="627"/>
      <point x="580" y="661"/>
    </contour>
    <contour>
      <point x="520" y="615" type="line"/>
      <point x="489" y="615" type="line"/>
      <point x="489" y="474" type="line"/>
      <point x="520" y="474" type="line"/>
    </contour>
  </outline>
</glyph>
<glyph name="ety375_cid47298_H" format="1">
  <advance width="1000"/>
  <outline>
    <contour>
      <point x="649" y="680" type="curve"/>
      <point x="541" y="713" type="line"/>
      <point x="516" y="675"/>
      <point x="472" y="623"/>
      <point x="436" y="590" type="curve"/>
      <point x="535" y="558" type="line"/>
      <point x="570" y="589"/>
      <point x="611" y="632"/>
    </contour>
    <contour>
      <point x="561" y="589" type="line"/>
      <point x="435" y="589" type="line"/>
      <point x="435" y="445" type="line"/>
      <point x="561" y="445" type="line"/>
    </contour>
  </outline>
</glyph>
<glyph name="ety376_cid47301_EL" format="1">
  <advance width="1000"/>
  <outline>
    <contour>
      <point x="602" y="694" type="curve"/>
      <point x="576" y="708" type="line"/>
      <point x="554" y="680"/>
      <point x="512" y="639"/>
      <point x="480" y="615" type="curve"/>
      <point x="502" y="602" type="line"/>
      <point x="533" y="626"/>
      <point x="572" y="660"/>
    </contour>
    <contour>
      <point x="511" y="614" type="line"/>
      <point x="480" y="614" type="line"/>
      <point x="480" y="455" type="line"/>
      <point x="511" y="455" type="line"/>
    </contour>
  </outline>
</glyph>
<glyph name="ety379_cid47388_EL" format="1">
  <advance width="1000"/>
  <outline>
    <contour>
      <point x="710" y="813" type="curve"/>
      <point x="681" y="834" type="line"/>
      <point x="646" y="804"/>
      <point x="580" y="769"/>
      <point x="525" y="744" type="curve"/>
      <point x="529" y="737"/>
      <point x="534" y="727"/>
      <point x="537" y="721" type="curve"/>
      <point x="595" y="746"/>
      <point x="663" y="779"/>
    </contour>
    <contour>
      <point x="553" y="744" type="line"/>
      <point x="524" y="744" type="line"/>
      <point x="524" y="333" type="line"/>
      <point x="553" y="333" type="line"/>
    </contour>
  </outline>
</glyph>
<glyph name="ety381_cid47586_H" format="1">
  <advance width="1000"/>
  <outline>
    <contour>
      <point x="162" y="752" type="line"/>
      <point x="52" y="775" type="line"/>
      <point x="52" y="457" type="line"/>
      <point x="162" y="457" type="line"/>
    </contour>
    <contour>
      <point x="260" y="745" type="curve"/>
      <point x="189" y="842" type="line"/>
      <point x="153" y="821"/>
      <point x="91" y="787"/>
      <point x="52" y="774" type="curve"/>
      <point x="108" y="690" type="line"/>
      <point x="150" y="701"/>
      <point x="209" y="722"/>
    </contour>
  </outline>
</glyph>
<glyph name="ety382_cid59786_H" format="1">
  <advance width="1000"/>
  <outline>
    <contour>
      <point x="616" y="539" type="line"/>
      <point x="510" y="581" type="line"/>
      <point x="510" y="340" type="line"/>
      <point x="616" y="340" type="line"/>
    </contour>
    <contour>
      <point x="714" y="576" type="curve"/>
      <point x="651" y="657" type="line"/>
      <point x="615" y="633"/>
      <point x="553" y="598"/>
      <point x="510" y="582" type="curve"/>
      <point x="556" y="515" type="line"/>
      <point x="601" y="528"/>
      <point x="661" y="550"/>
    </contour>
  </outline>
</glyph>
<glyph name="ety384_cid60723_EL" format="1">
  <advance width="1000"/>
  <outline>
    <contour>
      <point x="647" y="448" type="curve"/>
      <point x="620" y="471" type="line"/>
      <point x="577" y="444"/>
      <point x="501" y="409"/>
      <point x="436" y="384" type="curve"/>
      <point x="440" y="376"/>
      <point x="445" y="368"/>
      <point x="448" y="361" type="curve"/>
      <point x="515" y="385"/>
      <point x="591" y="418"/>
    </contour>
    <contour>
      <point x="465" y="383" type="line"/>
      <point x="435" y="383" type="line"/>
      <point x="435" y="-71" type="line"/>
      <point x="465" y="-71" type="line"/>
    </contour>
  </outline>
</glyph>
<glyph name="ety386_cid61092_EL" format="1">
  <advance width="1000"/>
  <outline>
    <contour>
      <point x="612" y="807" type="curve"/>
      <point x="584" y="827" type="line"/>
      <point x="548" y="799"/>
      <point x="478" y="766"/>
      <point x="420" y="741" type="curve"/>
      <point x="424" y="734"/>
      <point x="429" y="725"/>
      <point x="431" y="719" type="curve"/>
      <point x="492" y="742"/>
      <point x="564" y="774"/>
    </contour>
    <contour>
      <point x="449" y="731" type="line"/>
      <point x="419" y="741" type="line"/>
      <point x="419" y="-70" type="line"/>
      <point x="449" y="-70" type="line"/>
    </contour>
  </outline>
</glyph>
<glyph name="ety387_cid61092_H" format="1">
  <advance width="1000"/>
  <outline>
    <contour>
      <point x="631" y="766" type="curve"/>
      <point x="519" y="860" type="line"/>
      <point x="489" y="818"/>
      <point x="442" y="767"/>
      <point x="395" y="733" type="curve"/>
      <point x="412" y="707"/>
      <point x="434" y="663"/>
      <point x="442" y="636" type="curve"/>
      <point x="502" y="670"/>
      <point x="572" y="715"/>
    </contour>
    <contour>
      <point x="521" y="689" type="line"/>
      <point x="394" y="732" type="line"/>
      <point x="394" y="-92" type="line"/>
      <point x="521" y="-92" type="line"/>
    </contour>
  </outline>
</glyph>
<glyph name="ety388_cid61417_EL" format="1">
  <advance width="1000"/>
  <outline>
    <contour>
      <point x="368" y="455" type="line"/>
      <point x="338" y="467" type="line"/>
      <point x="338" y="155" type="line"/>
      <point x="368" y="155" type="line"/>
    </contour>
    <contour>
      <point x="700" y="484" type="curve"/>
      <point x="678" y="510" type="line"/>
      <point x="601" y="490"/>
      <point x="454" y="474"/>
      <point x="338" y="466" type="curve"/>
      <point x="342" y="458"/>
      <point x="347" y="447"/>
      <point x="348" y="439" type="curve"/>
      <point x="466" y="446"/>
      <point x="613" y="462"/>
    </contour>
  </outline>
</glyph>
<glyph name="ety389_cid61417_H" format="1">
  <advance width="1000"/>
  <outline>
    <contour>
      <point x="433" y="447" type="line"/>
      <point x="315" y="472" type="line"/>
      <point x="315" y="146" type="line"/>
      <point x="433" y="146" type="line"/>
    </contour>
    <contour>
      <point x="697" y="417" type="curve"/>
      <point x="651" y="512" type="line"/>
      <point x="562" y="492"/>
      <point x="429" y="478"/>
      <point x="315" y="471" type="curve"/>
      <point x="326" y="446"/>
      <point x="338" y="409"/>
      <point x="341" y="384" type="curve"/>
      <point x="454" y="385"/>
      <point x="595" y="397"/>
    </contour>
  </outline>
</glyph>
<glyph name="ety390_cid61481_H" format="1">
  <advance width="1000"/>
  <outline>
    <contour>
      <point x="208" y="723" type="line"/>
      <point x="75" y="767" type="line"/>
      <point x="75" y="319" type="line"/>
      <point x="208" y="319" type="line"/>
    </contour>
    <contour>
      <point x="499" y="734" type="curve"/>
      <point x="413" y="850" type="line"/>
      <point x="324" y="818"/>
      <point x="194" y="786"/>
      <point x="76" y="767" type="curve"/>
      <point x="90" y="737"/>
      <point x="107" y="687"/>
      <point x="112" y="655" type="curve"/>
      <point x="237" y="671"/>
      <point x="382" y="697"/>
    </contour>
  </outline>
</glyph>
<glyph name="ety393_cid61541_EL" format="1">
  <advance width="1000"/>
  <outline>
    <contour>
      <point x="630" y="809" type="curve"/>
      <point x="603" y="829" type="line"/>
      <point x="567" y="801"/>
      <point x="497" y="768"/>
      <point x="438" y="743" type="curve"/>
      <point x="442" y="736"/>
      <point x="448" y="727"/>
      <point x="450" y="720" type="curve"/>
      <point x="511" y="744"/>
      <point x="582" y="776"/>
    </contour>
    <contour>
      <point x="467" y="733" type="line"/>
      <point x="436" y="743" type="line"/>
      <point x="436" y="-68" type="line"/>
      <point x="467" y="-68" type="line"/>
    </contour>
  </outline>
</glyph>
<glyph name="ety394_cid61635_EL" format="1">
  <advance width="1000"/>
  <outline>
    <contour>
      <point x="596" y="762" type="curve"/>
      <point x="569" y="783" type="line"/>
      <point x="530" y="761"/>
      <point x="460" y="735"/>
      <point x="400" y="719" type="curve"/>
      <point x="405" y="711"/>
      <point x="410" y="702"/>
      <point x="412" y="695" type="curve"/>
      <point x="474" y="712"/>
      <point x="546" y="736"/>
    </contour>
    <contour>
      <point x="429" y="708" type="line"/>
      <point x="400" y="718" type="line"/>
      <point x="400" y="398" type="line"/>
      <point x="429" y="398" type="line"/>
    </contour>
  </outline>
</glyph>
<glyph name="ety396_cid61638_H" format="1">
  <advance width="1000"/>
  <outline>
    <contour>
      <point x="695" y="758" type="curve"/>
      <point x="601" y="856" type="line"/>
      <point x="563" y="823"/>
      <point x="504" y="783"/>
      <point x="451" y="755" type="curve"/>
      <point x="465" y="730"/>
      <point x="484" y="688"/>
      <point x="490" y="662" type="curve"/>
      <point x="552" y="687"/>
      <point x="629" y="721"/>
    </contour>
    <contour>
      <point x="584" y="754" type="line"/>
      <point x="450" y="754" type="line"/>
      <point x="450" y="331" type="line"/>
      <point x="584" y="331" type="line"/>
    </contour>
  </outline>
</glyph>
